<svg xmlns="http://www.w3.org/2000/svg" xmlns:xlink="http://www.w3.org/1999/xlink" width="26" zoomAndPan="magnify" viewBox="0 0 19.5 19.499999" height="26" preserveAspectRatio="xMidYMid meet" version="1.0"><defs><filter x="0%" y="0%" width="100%" height="100%" id="1c0a5fbc61"><feColorMatrix values="0 0 0 0 1 0 0 0 0 1 0 0 0 0 1 0 0 0 1 0" color-interpolation-filters="sRGB"/></filter><clipPath id="7272bf5230"><path d="M 2.09375 3.449219 L 16.714844 3.449219 L 16.714844 15.878906 L 2.09375 15.878906 Z M 2.09375 3.449219 " clip-rule="nonzero"/></clipPath><clipPath id="6463af3750"><path d="M 0 0 L 19 0 L 19 19.011719 L 0 19.011719 Z M 0 0 " clip-rule="nonzero"/></clipPath><mask id="0950545e9a"><g filter="url(#1c0a5fbc61)"><rect x="-1.95" width="23.4" fill="#000000" y="-1.95" height="23.399999" fill-opacity="0.34"/></g></mask><clipPath id="22283e10ff"><path d="M 0 0 L 18.867188 0 L 18.867188 19.011719 L 0 19.011719 Z M 0 0 " clip-rule="nonzero"/></clipPath><clipPath id="46ce2efe8b"><path d="M 2.195312 0 L 16.671875 0 C 17.882812 0 18.867188 0.980469 18.867188 2.195312 L 18.867188 16.820312 C 18.867188 18.03125 17.882812 19.011719 16.671875 19.011719 L 2.195312 19.011719 C 0.980469 19.011719 0 18.03125 0 16.820312 L 0 2.195312 C 0 0.980469 0.980469 0 2.195312 0 Z M 2.195312 0 " clip-rule="nonzero"/></clipPath><clipPath id="213889a5b9"><rect x="0" width="19" y="0" height="20"/></clipPath></defs><g clip-path="url(#7272bf5230)"><path fill="#41b93c" d="M 16.714844 3.449219 L 7.101562 12.066406 L 2.089844 8.898438 L 7.101562 15.875 L 16.714844 3.449219 " fill-opacity="1" fill-rule="nonzero"/></g><g clip-path="url(#6463af3750)"><g mask="url(#0950545e9a)"><g transform="matrix(1, 0, 0, 1, 0, 0)"><g clip-path="url(#213889a5b9)"><g clip-path="url(#22283e10ff)"><g clip-path="url(#46ce2efe8b)"><path fill="#4bff43" d="M 0 0 L 18.867188 0 L 18.867188 19.011719 L 0 19.011719 Z M 0 0 " fill-opacity="1" fill-rule="nonzero"/></g></g></g></g></g></g></svg>