<svg xmlns="http://www.w3.org/2000/svg" xmlns:xlink="http://www.w3.org/1999/xlink" width="27" zoomAndPan="magnify" viewBox="0 0 20.25 20.249999" height="27" preserveAspectRatio="xMidYMid meet" version="1.0"><defs><filter x="0%" y="0%" width="100%" height="100%" id="46263f2d79"><feColorMatrix values="0 0 0 0 1 0 0 0 0 1 0 0 0 0 1 0 0 0 1 0" color-interpolation-filters="sRGB"/></filter><clipPath id="bc4154518e"><path d="M 0 0 L 19.527344 0 L 19.527344 19.527344 L 0 19.527344 Z M 0 0 " clip-rule="nonzero"/></clipPath><mask id="9c4ca4de22"><g filter="url(#46263f2d79)"><rect x="-2.025" width="24.3" fill="#000000" y="-2.025" height="24.299999" fill-opacity="0.24"/></g></mask><clipPath id="c7f3f8e3ab"><path d="M 0 0 L 19.527344 0 L 19.527344 19.527344 L 0 19.527344 Z M 0 0 " clip-rule="nonzero"/></clipPath><clipPath id="3b8e81c7f1"><path d="M 2.167969 0 L 17.355469 0 C 18.554688 0 19.527344 0.972656 19.527344 2.167969 L 19.527344 17.355469 C 19.527344 18.554688 18.554688 19.527344 17.355469 19.527344 L 2.167969 19.527344 C 0.972656 19.527344 0 18.554688 0 17.355469 L 0 2.167969 C 0 0.972656 0.972656 0 2.167969 0 Z M 2.167969 0 " clip-rule="nonzero"/></clipPath><clipPath id="b3a2bd05b6"><rect x="0" width="20" y="0" height="20"/></clipPath><clipPath id="9e2e04b825"><path d="M 4.007812 6.800781 L 7.472656 6.800781 L 7.472656 12.640625 L 4.007812 12.640625 Z M 4.007812 6.800781 " clip-rule="nonzero"/></clipPath><clipPath id="31ff12acd3"><path d="M 6.0625 6.8125 L 4.007812 10.332031 L 6.03125 13.871094 L 10.109375 13.886719 L 12.160156 10.367188 L 10.136719 6.828125 Z M 6.0625 6.8125 " clip-rule="nonzero"/></clipPath><clipPath id="4b661ae428"><path d="M 4.007812 6.800781 L 7.808594 6.800781 L 7.808594 12.832031 L 4.007812 12.832031 Z M 4.007812 6.800781 " clip-rule="nonzero"/></clipPath><clipPath id="8342a2541f"><path d="M 6.0625 6.8125 L 4.007812 10.332031 L 6.03125 13.871094 L 10.109375 13.886719 L 12.160156 10.367188 L 10.136719 6.828125 Z M 6.0625 6.8125 " clip-rule="nonzero"/></clipPath><clipPath id="be69992ef4"><path d="M 4.007812 6.800781 L 8.160156 6.800781 L 8.160156 13.023438 L 4.007812 13.023438 Z M 4.007812 6.800781 " clip-rule="nonzero"/></clipPath><clipPath id="088f82ad62"><path d="M 6.0625 6.8125 L 4.007812 10.332031 L 6.03125 13.871094 L 10.109375 13.886719 L 12.160156 10.367188 L 10.136719 6.828125 Z M 6.0625 6.8125 " clip-rule="nonzero"/></clipPath><clipPath id="4cd2d1611c"><path d="M 4.007812 6.800781 L 8.496094 6.800781 L 8.496094 13.21875 L 4.007812 13.21875 Z M 4.007812 6.800781 " clip-rule="nonzero"/></clipPath><clipPath id="4aaab2ece8"><path d="M 6.0625 6.8125 L 4.007812 10.332031 L 6.03125 13.871094 L 10.109375 13.886719 L 12.160156 10.367188 L 10.136719 6.828125 Z M 6.0625 6.8125 " clip-rule="nonzero"/></clipPath><clipPath id="f50fff8ec7"><path d="M 4.222656 6.800781 L 8.832031 6.800781 L 8.832031 13.394531 L 4.222656 13.394531 Z M 4.222656 6.800781 " clip-rule="nonzero"/></clipPath><clipPath id="39919ceb11"><path d="M 6.0625 6.8125 L 4.007812 10.332031 L 6.03125 13.871094 L 10.109375 13.886719 L 12.160156 10.367188 L 10.136719 6.828125 Z M 6.0625 6.8125 " clip-rule="nonzero"/></clipPath><clipPath id="6331777240"><path d="M 4.574219 6.800781 L 9.167969 6.800781 L 9.167969 13.585938 L 4.574219 13.585938 Z M 4.574219 6.800781 " clip-rule="nonzero"/></clipPath><clipPath id="39300603e8"><path d="M 6.0625 6.8125 L 4.007812 10.332031 L 6.03125 13.871094 L 10.109375 13.886719 L 12.160156 10.367188 L 10.136719 6.828125 Z M 6.0625 6.8125 " clip-rule="nonzero"/></clipPath><clipPath id="a0dea2334c"><path d="M 4.941406 6.800781 L 9.519531 6.800781 L 9.519531 13.585938 L 4.941406 13.585938 Z M 4.941406 6.800781 " clip-rule="nonzero"/></clipPath><clipPath id="cb25cf1131"><path d="M 6.0625 6.8125 L 4.007812 10.332031 L 6.03125 13.871094 L 10.109375 13.886719 L 12.160156 10.367188 L 10.136719 6.828125 Z M 6.0625 6.8125 " clip-rule="nonzero"/></clipPath><clipPath id="40dad31ffb"><path d="M 5.296875 6.800781 L 9.855469 6.800781 L 9.855469 13.585938 L 5.296875 13.585938 Z M 5.296875 6.800781 " clip-rule="nonzero"/></clipPath><clipPath id="94ef674aa1"><path d="M 6.0625 6.8125 L 4.007812 10.332031 L 6.03125 13.871094 L 10.109375 13.886719 L 12.160156 10.367188 L 10.136719 6.828125 Z M 6.0625 6.8125 " clip-rule="nonzero"/></clipPath><clipPath id="05bcf23ddf"><path d="M 5.648438 6.800781 L 10.191406 6.800781 L 10.191406 13.585938 L 5.648438 13.585938 Z M 5.648438 6.800781 " clip-rule="nonzero"/></clipPath><clipPath id="7fd23f649f"><path d="M 6.0625 6.8125 L 4.007812 10.332031 L 6.03125 13.871094 L 10.109375 13.886719 L 12.160156 10.367188 L 10.136719 6.828125 Z M 6.0625 6.8125 " clip-rule="nonzero"/></clipPath><clipPath id="62c76efae4"><path d="M 6 6.800781 L 10.527344 6.800781 L 10.527344 13.585938 L 6 13.585938 Z M 6 6.800781 " clip-rule="nonzero"/></clipPath><clipPath id="de3425180a"><path d="M 6.0625 6.8125 L 4.007812 10.332031 L 6.03125 13.871094 L 10.109375 13.886719 L 12.160156 10.367188 L 10.136719 6.828125 Z M 6.0625 6.8125 " clip-rule="nonzero"/></clipPath><clipPath id="2a393db9c8"><path d="M 6.351562 6.929688 L 10.878906 6.929688 L 10.878906 13.585938 L 6.351562 13.585938 Z M 6.351562 6.929688 " clip-rule="nonzero"/></clipPath><clipPath id="32ef87ad44"><path d="M 6.0625 6.8125 L 4.007812 10.332031 L 6.03125 13.871094 L 10.109375 13.886719 L 12.160156 10.367188 L 10.136719 6.828125 Z M 6.0625 6.8125 " clip-rule="nonzero"/></clipPath><clipPath id="8469794979"><path d="M 6.703125 7.136719 L 11.214844 7.136719 L 11.214844 13.585938 L 6.703125 13.585938 Z M 6.703125 7.136719 " clip-rule="nonzero"/></clipPath><clipPath id="31c9f207bb"><path d="M 6.0625 6.8125 L 4.007812 10.332031 L 6.03125 13.871094 L 10.109375 13.886719 L 12.160156 10.367188 L 10.136719 6.828125 Z M 6.0625 6.8125 " clip-rule="nonzero"/></clipPath><clipPath id="a8f0fdac53"><path d="M 7.070312 7.328125 L 11.550781 7.328125 L 11.550781 13.585938 L 7.070312 13.585938 Z M 7.070312 7.328125 " clip-rule="nonzero"/></clipPath><clipPath id="45eb43fada"><path d="M 6.0625 6.8125 L 4.007812 10.332031 L 6.03125 13.871094 L 10.109375 13.886719 L 12.160156 10.367188 L 10.136719 6.828125 Z M 6.0625 6.8125 " clip-rule="nonzero"/></clipPath><clipPath id="5e2207bd42"><path d="M 7.421875 7.519531 L 11.886719 7.519531 L 11.886719 13.585938 L 7.421875 13.585938 Z M 7.421875 7.519531 " clip-rule="nonzero"/></clipPath><clipPath id="9356a45c2c"><path d="M 6.0625 6.8125 L 4.007812 10.332031 L 6.03125 13.871094 L 10.109375 13.886719 L 12.160156 10.367188 L 10.136719 6.828125 Z M 6.0625 6.8125 " clip-rule="nonzero"/></clipPath><clipPath id="df6eb748ca"><path d="M 7.773438 7.726562 L 12.160156 7.726562 L 12.160156 13.585938 L 7.773438 13.585938 Z M 7.773438 7.726562 " clip-rule="nonzero"/></clipPath><clipPath id="af703323a3"><path d="M 6.0625 6.8125 L 4.007812 10.332031 L 6.03125 13.871094 L 10.109375 13.886719 L 12.160156 10.367188 L 10.136719 6.828125 Z M 6.0625 6.8125 " clip-rule="nonzero"/></clipPath><clipPath id="2207bfff67"><path d="M 8.128906 7.921875 L 12.160156 7.921875 L 12.160156 13.585938 L 8.128906 13.585938 Z M 8.128906 7.921875 " clip-rule="nonzero"/></clipPath><clipPath id="bf5159e1ba"><path d="M 6.0625 6.8125 L 4.007812 10.332031 L 6.03125 13.871094 L 10.109375 13.886719 L 12.160156 10.367188 L 10.136719 6.828125 Z M 6.0625 6.8125 " clip-rule="nonzero"/></clipPath><clipPath id="1fc477adb3"><path d="M 8.480469 8.113281 L 12.160156 8.113281 L 12.160156 13.585938 L 8.480469 13.585938 Z M 8.480469 8.113281 " clip-rule="nonzero"/></clipPath><clipPath id="40537fdbe6"><path d="M 6.0625 6.8125 L 4.007812 10.332031 L 6.03125 13.871094 L 10.109375 13.886719 L 12.160156 10.367188 L 10.136719 6.828125 Z M 6.0625 6.8125 " clip-rule="nonzero"/></clipPath><clipPath id="2775af590b"><path d="M 8.847656 8.304688 L 12.160156 8.304688 L 12.160156 13.585938 L 8.847656 13.585938 Z M 8.847656 8.304688 " clip-rule="nonzero"/></clipPath><clipPath id="ab0d1f6011"><path d="M 6.0625 6.8125 L 4.007812 10.332031 L 6.03125 13.871094 L 10.109375 13.886719 L 12.160156 10.367188 L 10.136719 6.828125 Z M 6.0625 6.8125 " clip-rule="nonzero"/></clipPath><clipPath id="cbb52a1e26"><path d="M 12.046875 6.863281 L 15.519531 6.863281 L 15.519531 12.707031 L 12.046875 12.707031 Z M 12.046875 6.863281 " clip-rule="nonzero"/></clipPath><clipPath id="e355664e02"><path d="M 13.457031 12.703125 L 15.511719 9.183594 L 13.488281 5.644531 L 9.410156 5.628906 L 7.359375 9.148438 L 9.382812 12.6875 Z M 13.457031 12.703125 " clip-rule="nonzero"/></clipPath><clipPath id="1a51bad080"><path d="M 11.710938 6.6875 L 15.519531 6.6875 L 15.519531 12.707031 L 11.710938 12.707031 Z M 11.710938 6.6875 " clip-rule="nonzero"/></clipPath><clipPath id="5828fc4101"><path d="M 13.457031 12.703125 L 15.511719 9.183594 L 13.488281 5.644531 L 9.410156 5.628906 L 7.359375 9.148438 L 9.382812 12.6875 Z M 13.457031 12.703125 " clip-rule="nonzero"/></clipPath><clipPath id="1276e8cb7e"><path d="M 11.359375 6.496094 L 15.519531 6.496094 L 15.519531 12.707031 L 11.359375 12.707031 Z M 11.359375 6.496094 " clip-rule="nonzero"/></clipPath><clipPath id="fdbcad27c8"><path d="M 13.457031 12.703125 L 15.511719 9.183594 L 13.488281 5.644531 L 9.410156 5.628906 L 7.359375 9.148438 L 9.382812 12.6875 Z M 13.457031 12.703125 " clip-rule="nonzero"/></clipPath><clipPath id="3f7ef03597"><path d="M 11.023438 6.304688 L 15.519531 6.304688 L 15.519531 12.707031 L 11.023438 12.707031 Z M 11.023438 6.304688 " clip-rule="nonzero"/></clipPath><clipPath id="1bb7627837"><path d="M 13.457031 12.703125 L 15.511719 9.183594 L 13.488281 5.644531 L 9.410156 5.628906 L 7.359375 9.148438 L 9.382812 12.6875 Z M 13.457031 12.703125 " clip-rule="nonzero"/></clipPath><clipPath id="707d5ba183"><path d="M 10.6875 6.113281 L 15.296875 6.113281 L 15.296875 12.707031 L 10.6875 12.707031 Z M 10.6875 6.113281 " clip-rule="nonzero"/></clipPath><clipPath id="79200bb1d2"><path d="M 13.457031 12.703125 L 15.511719 9.183594 L 13.488281 5.644531 L 9.410156 5.628906 L 7.359375 9.148438 L 9.382812 12.6875 Z M 13.457031 12.703125 " clip-rule="nonzero"/></clipPath><clipPath id="0c00bbb429"><path d="M 10.351562 5.9375 L 14.945312 5.9375 L 14.945312 12.707031 L 10.351562 12.707031 Z M 10.351562 5.9375 " clip-rule="nonzero"/></clipPath><clipPath id="8396039a52"><path d="M 13.457031 12.703125 L 15.511719 9.183594 L 13.488281 5.644531 L 9.410156 5.628906 L 7.359375 9.148438 L 9.382812 12.6875 Z M 13.457031 12.703125 " clip-rule="nonzero"/></clipPath><clipPath id="d2026044bf"><path d="M 10 5.742188 L 14.578125 5.742188 L 14.578125 12.707031 L 10 12.707031 Z M 10 5.742188 " clip-rule="nonzero"/></clipPath><clipPath id="2e1dab96dd"><path d="M 13.457031 12.703125 L 15.511719 9.183594 L 13.488281 5.644531 L 9.410156 5.628906 L 7.359375 9.148438 L 9.382812 12.6875 Z M 13.457031 12.703125 " clip-rule="nonzero"/></clipPath><clipPath id="60b2b3ad7e"><path d="M 9.664062 5.628906 L 14.222656 5.628906 L 14.222656 12.707031 L 9.664062 12.707031 Z M 9.664062 5.628906 " clip-rule="nonzero"/></clipPath><clipPath id="f206c33e47"><path d="M 13.457031 12.703125 L 15.511719 9.183594 L 13.488281 5.644531 L 9.410156 5.628906 L 7.359375 9.148438 L 9.382812 12.6875 Z M 13.457031 12.703125 " clip-rule="nonzero"/></clipPath><clipPath id="1aa227993a"><path d="M 9.328125 5.628906 L 13.871094 5.628906 L 13.871094 12.707031 L 9.328125 12.707031 Z M 9.328125 5.628906 " clip-rule="nonzero"/></clipPath><clipPath id="2aeda6d3b9"><path d="M 13.457031 12.703125 L 15.511719 9.183594 L 13.488281 5.644531 L 9.410156 5.628906 L 7.359375 9.148438 L 9.382812 12.6875 Z M 13.457031 12.703125 " clip-rule="nonzero"/></clipPath><clipPath id="f0da43fed4"><path d="M 8.992188 5.628906 L 13.519531 5.628906 L 13.519531 12.707031 L 8.992188 12.707031 Z M 8.992188 5.628906 " clip-rule="nonzero"/></clipPath><clipPath id="68837999df"><path d="M 13.457031 12.703125 L 15.511719 9.183594 L 13.488281 5.644531 L 9.410156 5.628906 L 7.359375 9.148438 L 9.382812 12.6875 Z M 13.457031 12.703125 " clip-rule="nonzero"/></clipPath><clipPath id="9fa381fe8c"><path d="M 8.640625 5.628906 L 13.167969 5.628906 L 13.167969 12.578125 L 8.640625 12.578125 Z M 8.640625 5.628906 " clip-rule="nonzero"/></clipPath><clipPath id="582386327d"><path d="M 13.457031 12.703125 L 15.511719 9.183594 L 13.488281 5.644531 L 9.410156 5.628906 L 7.359375 9.148438 L 9.382812 12.6875 Z M 13.457031 12.703125 " clip-rule="nonzero"/></clipPath><clipPath id="417cfbd0d1"><path d="M 8.304688 5.628906 L 12.816406 5.628906 L 12.816406 12.386719 L 8.304688 12.386719 Z M 8.304688 5.628906 " clip-rule="nonzero"/></clipPath><clipPath id="2716cfd28e"><path d="M 13.457031 12.703125 L 15.511719 9.183594 L 13.488281 5.644531 L 9.410156 5.628906 L 7.359375 9.148438 L 9.382812 12.6875 Z M 13.457031 12.703125 " clip-rule="nonzero"/></clipPath><clipPath id="161c8eb4d0"><path d="M 7.96875 5.628906 L 12.449219 5.628906 L 12.449219 12.191406 L 7.96875 12.191406 Z M 7.96875 5.628906 " clip-rule="nonzero"/></clipPath><clipPath id="1cc4de7e4f"><path d="M 13.457031 12.703125 L 15.511719 9.183594 L 13.488281 5.644531 L 9.410156 5.628906 L 7.359375 9.148438 L 9.382812 12.6875 Z M 13.457031 12.703125 " clip-rule="nonzero"/></clipPath><clipPath id="b0bf53017b"><path d="M 7.632812 5.628906 L 12.097656 5.628906 L 12.097656 11.984375 L 7.632812 11.984375 Z M 7.632812 5.628906 " clip-rule="nonzero"/></clipPath><clipPath id="103c420eee"><path d="M 13.457031 12.703125 L 15.511719 9.183594 L 13.488281 5.644531 L 9.410156 5.628906 L 7.359375 9.148438 L 9.382812 12.6875 Z M 13.457031 12.703125 " clip-rule="nonzero"/></clipPath><clipPath id="8be815a947"><path d="M 7.359375 5.628906 L 11.742188 5.628906 L 11.742188 11.792969 L 7.359375 11.792969 Z M 7.359375 5.628906 " clip-rule="nonzero"/></clipPath><clipPath id="ae265e4523"><path d="M 13.457031 12.703125 L 15.511719 9.183594 L 13.488281 5.644531 L 9.410156 5.628906 L 7.359375 9.148438 L 9.382812 12.6875 Z M 13.457031 12.703125 " clip-rule="nonzero"/></clipPath><clipPath id="7fa7bf9023"><path d="M 7.359375 5.628906 L 11.390625 5.628906 L 11.390625 11.601562 L 7.359375 11.601562 Z M 7.359375 5.628906 " clip-rule="nonzero"/></clipPath><clipPath id="c4aae3b7b2"><path d="M 13.457031 12.703125 L 15.511719 9.183594 L 13.488281 5.644531 L 9.410156 5.628906 L 7.359375 9.148438 L 9.382812 12.6875 Z M 13.457031 12.703125 " clip-rule="nonzero"/></clipPath><clipPath id="1b262e26f3"><path d="M 7.359375 5.628906 L 11.039062 5.628906 L 11.039062 11.410156 L 7.359375 11.410156 Z M 7.359375 5.628906 " clip-rule="nonzero"/></clipPath><clipPath id="e4c400262c"><path d="M 13.457031 12.703125 L 15.511719 9.183594 L 13.488281 5.644531 L 9.410156 5.628906 L 7.359375 9.148438 L 9.382812 12.6875 Z M 13.457031 12.703125 " clip-rule="nonzero"/></clipPath><clipPath id="a701bc312b"><path d="M 7.359375 5.628906 L 10.671875 5.628906 L 10.671875 11.199219 L 7.359375 11.199219 Z M 7.359375 5.628906 " clip-rule="nonzero"/></clipPath><clipPath id="b4c017886c"><path d="M 13.457031 12.703125 L 15.511719 9.183594 L 13.488281 5.644531 L 9.410156 5.628906 L 7.359375 9.148438 L 9.382812 12.6875 Z M 13.457031 12.703125 " clip-rule="nonzero"/></clipPath></defs><g clip-path="url(#bc4154518e)"><path fill="#ffffff" d="M 0 0 L 19.527344 0 L 19.527344 19.527344 L 0 19.527344 Z M 0 0 " fill-opacity="1" fill-rule="nonzero"/><g mask="url(#9c4ca4de22)"><g transform="matrix(1, 0, 0, 1, 0, 0)"><g clip-path="url(#b3a2bd05b6)"><g clip-path="url(#c7f3f8e3ab)"><g clip-path="url(#3b8e81c7f1)"><path fill="#009b02" d="M 0 0 L 19.527344 0 L 19.527344 19.527344 L 0 19.527344 Z M 0 0 " fill-opacity="1" fill-rule="nonzero"/></g></g></g></g></g></g><g clip-path="url(#9e2e04b825)"><g clip-path="url(#31ff12acd3)"><path fill="#52c306" d="M 7.464844 5.136719 L 3.089844 12.640625 L 2.8125 12.476562 L 7.1875 4.972656 L 7.464844 5.136719 " fill-opacity="1" fill-rule="nonzero"/></g></g><g clip-path="url(#4b661ae428)"><g clip-path="url(#8342a2541f)"><path fill="#52c306" d="M 7.542969 5.171875 L 7.804688 5.324219 L 3.429688 12.828125 L 3.167969 12.675781 L 7.542969 5.171875 " fill-opacity="1" fill-rule="nonzero"/></g></g><g clip-path="url(#be69992ef4)"><g clip-path="url(#088f82ad62)"><path fill="#52c306" d="M 7.898438 5.367188 L 8.144531 5.511719 L 3.769531 13.015625 L 3.523438 12.871094 L 7.898438 5.367188 " fill-opacity="1" fill-rule="nonzero"/></g></g><g clip-path="url(#4cd2d1611c)"><g clip-path="url(#4aaab2ece8)"><path fill="#52c306" d="M 8.253906 5.566406 L 8.484375 5.699219 L 4.113281 13.203125 L 3.878906 13.066406 L 8.253906 5.566406 " fill-opacity="1" fill-rule="nonzero"/></g></g><g clip-path="url(#f50fff8ec7)"><g clip-path="url(#39919ceb11)"><path fill="#52c306" d="M 8.605469 5.761719 L 8.824219 5.886719 L 4.453125 13.390625 L 4.234375 13.265625 L 8.605469 5.761719 " fill-opacity="1" fill-rule="nonzero"/></g></g><g clip-path="url(#6331777240)"><g clip-path="url(#39300603e8)"><path fill="#52c306" d="M 8.960938 5.957031 L 9.164062 6.074219 L 4.792969 13.578125 L 4.589844 13.460938 L 8.960938 5.957031 " fill-opacity="1" fill-rule="nonzero"/></g></g><g clip-path="url(#a0dea2334c)"><g clip-path="url(#cb25cf1131)"><path fill="#52c306" d="M 9.316406 6.15625 L 9.503906 6.265625 L 5.132812 13.769531 L 4.945312 13.660156 L 9.316406 6.15625 " fill-opacity="1" fill-rule="nonzero"/></g></g><g clip-path="url(#40dad31ffb)"><g clip-path="url(#94ef674aa1)"><path fill="#52c306" d="M 9.671875 6.351562 L 9.84375 6.453125 L 5.472656 13.957031 L 5.300781 13.855469 L 9.671875 6.351562 " fill-opacity="1" fill-rule="nonzero"/></g></g><g clip-path="url(#05bcf23ddf)"><g clip-path="url(#7fd23f649f)"><path fill="#52c306" d="M 10.027344 6.546875 L 10.183594 6.640625 L 5.8125 14.144531 L 5.652344 14.050781 L 10.027344 6.546875 " fill-opacity="1" fill-rule="nonzero"/></g></g><g clip-path="url(#62c76efae4)"><g clip-path="url(#de3425180a)"><path fill="#52c306" d="M 10.382812 6.746094 L 10.527344 6.828125 L 6.152344 14.332031 L 6.007812 14.25 L 10.382812 6.746094 " fill-opacity="1" fill-rule="nonzero"/></g></g><g clip-path="url(#2a393db9c8)"><g clip-path="url(#32ef87ad44)"><path fill="#52c306" d="M 10.738281 6.941406 L 10.867188 7.015625 L 6.492188 14.519531 L 6.363281 14.445312 L 10.738281 6.941406 " fill-opacity="1" fill-rule="nonzero"/></g></g><g clip-path="url(#8469794979)"><g clip-path="url(#31c9f207bb)"><path fill="#52c306" d="M 11.09375 7.136719 L 11.207031 7.203125 L 6.832031 14.707031 L 6.71875 14.640625 L 11.09375 7.136719 " fill-opacity="1" fill-rule="nonzero"/></g></g><g clip-path="url(#a8f0fdac53)"><g clip-path="url(#45eb43fada)"><path fill="#52c306" d="M 11.449219 7.335938 L 11.546875 7.394531 L 7.171875 14.894531 L 7.074219 14.839844 L 11.449219 7.335938 " fill-opacity="1" fill-rule="nonzero"/></g></g><g clip-path="url(#5e2207bd42)"><g clip-path="url(#9356a45c2c)"><path fill="#52c306" d="M 11.800781 7.53125 L 11.886719 7.582031 L 7.511719 15.085938 L 7.429688 15.035156 L 11.800781 7.53125 " fill-opacity="1" fill-rule="nonzero"/></g></g><g clip-path="url(#df6eb748ca)"><g clip-path="url(#af703323a3)"><path fill="#52c306" d="M 12.15625 7.726562 L 12.226562 7.769531 L 7.851562 15.273438 L 7.785156 15.230469 L 12.15625 7.726562 " fill-opacity="1" fill-rule="nonzero"/></g></g><g clip-path="url(#2207bfff67)"><g clip-path="url(#bf5159e1ba)"><path fill="#52c306" d="M 12.511719 7.925781 L 12.566406 7.957031 L 8.195312 15.460938 L 8.140625 15.429688 L 12.511719 7.925781 " fill-opacity="1" fill-rule="nonzero"/></g></g><g clip-path="url(#1fc477adb3)"><g clip-path="url(#40537fdbe6)"><path fill="#52c306" d="M 12.867188 8.121094 L 12.90625 8.144531 L 8.535156 15.648438 L 8.496094 15.625 L 12.867188 8.121094 " fill-opacity="1" fill-rule="nonzero"/></g></g><g clip-path="url(#2775af590b)"><g clip-path="url(#ab0d1f6011)"><path fill="#52c306" d="M 13.222656 8.320312 L 8.847656 15.820312 L 8.875 15.835938 L 13.246094 8.332031 L 13.222656 8.320312 " fill-opacity="1" fill-rule="nonzero"/></g></g><g clip-path="url(#cbb52a1e26)"><g clip-path="url(#e355664e02)"><path fill="#52c306" d="M 12.054688 14.378906 L 16.429688 6.878906 L 16.707031 7.039062 L 12.332031 14.542969 L 12.054688 14.378906 " fill-opacity="1" fill-rule="nonzero"/></g></g><g clip-path="url(#1a51bad080)"><g clip-path="url(#5828fc4101)"><path fill="#52c306" d="M 11.976562 14.34375 L 11.714844 14.191406 L 16.089844 6.6875 L 16.351562 6.839844 L 11.976562 14.34375 " fill-opacity="1" fill-rule="nonzero"/></g></g><g clip-path="url(#1276e8cb7e)"><g clip-path="url(#fdbcad27c8)"><path fill="#52c306" d="M 11.621094 14.148438 L 11.375 14.003906 L 15.75 6.5 L 15.996094 6.644531 L 11.621094 14.148438 " fill-opacity="1" fill-rule="nonzero"/></g></g><g clip-path="url(#3f7ef03597)"><g clip-path="url(#1bb7627837)"><path fill="#52c306" d="M 11.265625 13.953125 L 11.035156 13.816406 L 15.40625 6.3125 L 15.640625 6.449219 L 11.265625 13.953125 " fill-opacity="1" fill-rule="nonzero"/></g></g><g clip-path="url(#707d5ba183)"><g clip-path="url(#79200bb1d2)"><path fill="#52c306" d="M 10.914062 13.753906 L 10.695312 13.628906 L 15.066406 6.125 L 15.285156 6.25 L 10.914062 13.753906 " fill-opacity="1" fill-rule="nonzero"/></g></g><g clip-path="url(#0c00bbb429)"><g clip-path="url(#8396039a52)"><path fill="#52c306" d="M 10.558594 13.558594 L 10.355469 13.441406 L 14.726562 5.9375 L 14.929688 6.054688 L 10.558594 13.558594 " fill-opacity="1" fill-rule="nonzero"/></g></g><g clip-path="url(#d2026044bf)"><g clip-path="url(#2e1dab96dd)"><path fill="#52c306" d="M 10.203125 13.363281 L 10.015625 13.253906 L 14.386719 5.75 L 14.574219 5.859375 L 10.203125 13.363281 " fill-opacity="1" fill-rule="nonzero"/></g></g><g clip-path="url(#60b2b3ad7e)"><g clip-path="url(#f206c33e47)"><path fill="#52c306" d="M 9.847656 13.164062 L 9.675781 13.0625 L 14.046875 5.5625 L 14.21875 5.660156 L 9.847656 13.164062 " fill-opacity="1" fill-rule="nonzero"/></g></g><g clip-path="url(#1aa227993a)"><g clip-path="url(#2aeda6d3b9)"><path fill="#52c306" d="M 9.492188 12.96875 L 9.332031 12.875 L 13.707031 5.371094 L 13.863281 5.464844 L 9.492188 12.96875 " fill-opacity="1" fill-rule="nonzero"/></g></g><g clip-path="url(#f0da43fed4)"><g clip-path="url(#68837999df)"><path fill="#52c306" d="M 9.136719 12.773438 L 8.992188 12.6875 L 13.367188 5.183594 L 13.511719 5.269531 L 9.136719 12.773438 " fill-opacity="1" fill-rule="nonzero"/></g></g><g clip-path="url(#9fa381fe8c)"><g clip-path="url(#582386327d)"><path fill="#52c306" d="M 8.78125 12.574219 L 8.652344 12.5 L 13.027344 4.996094 L 13.15625 5.070312 L 8.78125 12.574219 " fill-opacity="1" fill-rule="nonzero"/></g></g><g clip-path="url(#417cfbd0d1)"><g clip-path="url(#2716cfd28e)"><path fill="#52c306" d="M 8.425781 12.378906 L 8.3125 12.3125 L 12.6875 4.808594 L 12.800781 4.875 L 8.425781 12.378906 " fill-opacity="1" fill-rule="nonzero"/></g></g><g clip-path="url(#161c8eb4d0)"><g clip-path="url(#1cc4de7e4f)"><path fill="#52c306" d="M 8.070312 12.179688 L 7.972656 12.125 L 12.347656 4.621094 L 12.445312 4.679688 L 8.070312 12.179688 " fill-opacity="1" fill-rule="nonzero"/></g></g><g clip-path="url(#b0bf53017b)"><g clip-path="url(#103c420eee)"><path fill="#52c306" d="M 7.71875 11.984375 L 7.632812 11.9375 L 12.007812 4.433594 L 12.089844 4.480469 L 7.71875 11.984375 " fill-opacity="1" fill-rule="nonzero"/></g></g><g clip-path="url(#8be815a947)"><g clip-path="url(#ae265e4523)"><path fill="#52c306" d="M 7.363281 11.789062 L 7.292969 11.746094 L 11.664062 4.242188 L 11.734375 4.285156 L 7.363281 11.789062 " fill-opacity="1" fill-rule="nonzero"/></g></g><g clip-path="url(#7fa7bf9023)"><g clip-path="url(#c4aae3b7b2)"><path fill="#52c306" d="M 7.007812 11.589844 L 6.953125 11.558594 L 11.324219 4.054688 L 11.378906 4.089844 L 7.007812 11.589844 " fill-opacity="1" fill-rule="nonzero"/></g></g><g clip-path="url(#1b262e26f3)"><g clip-path="url(#e4c400262c)"><path fill="#52c306" d="M 6.652344 11.394531 L 6.613281 11.371094 L 10.984375 3.867188 L 11.023438 3.890625 L 6.652344 11.394531 " fill-opacity="1" fill-rule="nonzero"/></g></g><g clip-path="url(#a701bc312b)"><g clip-path="url(#b4c017886c)"><path fill="#52c306" d="M 6.296875 11.199219 L 10.671875 3.695312 L 10.644531 3.679688 L 6.273438 11.183594 L 6.296875 11.199219 " fill-opacity="1" fill-rule="nonzero"/></g></g></svg>