<svg xmlns="http://www.w3.org/2000/svg" xmlns:xlink="http://www.w3.org/1999/xlink" width="120" zoomAndPan="magnify" viewBox="0 0 90 89.999999" height="120" preserveAspectRatio="xMidYMid meet" version="1.0"><defs><filter x="0%" y="0%" width="100%" height="100%" id="c9fba06c82"><feColorMatrix values="0 0 0 0 1 0 0 0 0 1 0 0 0 0 1 0 0 0 1 0" color-interpolation-filters="sRGB"/></filter><mask id="86bd59e98c"><g filter="url(#c9fba06c82)"><rect x="-9" width="108" fill="#000000" y="-9" height="107.999999" fill-opacity="0.82"/></g></mask><clipPath id="fcdbd01b00"><path d="M 0 0 L 90 0 L 90 90 L 0 90 Z M 0 0 " clip-rule="nonzero"/></clipPath><clipPath id="e33e24125e"><path d="M 4.5 0 L 85.5 0 C 87.984375 0 90 2.015625 90 4.5 L 90 85.5 C 90 87.984375 87.984375 90 85.5 90 L 4.5 90 C 2.015625 90 0 87.984375 0 85.5 L 0 4.5 C 0 2.015625 2.015625 0 4.5 0 Z M 4.5 0 " clip-rule="nonzero"/></clipPath><clipPath id="c1d83da334"><rect x="0" width="90" y="0" height="90"/></clipPath><clipPath id="978b63dc93"><path d="M 12.429688 12.429688 L 77.679688 12.429688 L 77.679688 77.679688 L 12.429688 77.679688 Z M 12.429688 12.429688 " clip-rule="nonzero"/></clipPath></defs><rect x="-9" width="108" fill="#ffffff" y="-9" height="107.999999" fill-opacity="1"/><g mask="url(#86bd59e98c)"><g transform="matrix(1, 0, 0, 1, 0, -0.00000000000000949)"><g clip-path="url(#c1d83da334)"><g clip-path="url(#fcdbd01b00)"><g clip-path="url(#e33e24125e)"><rect x="-19.8" width="129.6" fill="#afffb7" height="129.599999" y="-19.8" fill-opacity="1"/></g></g></g></g></g><path fill="#52c306" d="M 44.984375 39.238281 C 41.808594 39.238281 39.238281 41.808594 39.238281 44.984375 C 39.238281 48.15625 41.808594 50.726562 44.984375 50.726562 C 48.15625 50.726562 50.726562 48.15625 50.726562 44.984375 C 50.726562 43.925781 51.585938 43.066406 52.644531 43.066406 C 53.699219 43.066406 54.558594 43.925781 54.558594 44.984375 C 54.558594 50.269531 50.269531 54.558594 44.984375 54.558594 C 39.695312 54.558594 35.40625 50.269531 35.40625 44.984375 C 35.40625 39.695312 39.695312 35.40625 44.984375 35.40625 C 46.039062 35.40625 46.898438 36.265625 46.898438 37.324219 C 46.898438 38.378906 46.039062 39.238281 44.984375 39.238281 Z M 44.984375 39.238281 " fill-opacity="1" fill-rule="evenodd"/><path fill="#52c306" d="M 44.984375 27.746094 C 35.464844 27.746094 27.746094 35.464844 27.746094 44.984375 C 27.746094 54.5 35.464844 62.21875 44.984375 62.21875 C 54.5 62.21875 62.21875 54.5 62.21875 44.984375 C 62.21875 43.800781 62.097656 42.644531 61.871094 41.535156 C 61.664062 40.496094 62.332031 39.488281 63.367188 39.277344 C 64.40625 39.066406 65.414062 39.734375 65.625 40.773438 C 65.902344 42.132812 66.046875 43.542969 66.046875 44.984375 C 66.046875 56.617188 56.617188 66.046875 44.984375 66.046875 C 33.347656 66.046875 23.917969 56.617188 23.917969 44.984375 C 23.917969 33.347656 33.347656 23.917969 44.984375 23.917969 C 46.421875 23.917969 47.832031 24.0625 49.195312 24.339844 C 50.230469 24.550781 50.898438 25.558594 50.6875 26.597656 C 50.480469 27.632812 49.46875 28.304688 48.429688 28.09375 C 47.320312 27.867188 46.164062 27.746094 44.984375 27.746094 Z M 44.984375 27.746094 " fill-opacity="1" fill-rule="evenodd"/><g clip-path="url(#978b63dc93)"><path fill="#52c306" d="M 44.984375 16.257812 C 29.117188 16.257812 16.257812 29.117188 16.257812 44.984375 C 16.257812 60.847656 29.117188 73.707031 44.984375 73.707031 C 60.847656 73.707031 73.707031 60.847656 73.707031 44.984375 C 73.707031 41.171875 72.964844 37.535156 71.621094 34.210938 C 71.222656 33.230469 71.695312 32.113281 72.675781 31.71875 C 73.65625 31.320312 74.773438 31.792969 75.171875 32.773438 C 76.699219 36.546875 77.539062 40.667969 77.539062 44.984375 C 77.539062 62.960938 62.960938 77.539062 44.984375 77.539062 C 27.003906 77.539062 12.429688 62.960938 12.429688 44.984375 C 12.429688 27.003906 27.003906 12.429688 44.984375 12.429688 C 49.296875 12.429688 53.417969 13.269531 57.191406 14.796875 C 58.171875 15.191406 58.644531 16.308594 58.246094 17.289062 C 57.851562 18.269531 56.734375 18.742188 55.753906 18.34375 C 52.429688 17 48.796875 16.257812 44.984375 16.257812 Z M 44.984375 16.257812 " fill-opacity="1" fill-rule="evenodd"/></g><path fill="#52c306" d="M 67.402344 22.5625 C 68.148438 23.3125 68.148438 24.523438 67.402344 25.273438 L 46.335938 46.335938 C 45.589844 47.085938 44.375 47.085938 43.628906 46.335938 C 42.882812 45.589844 42.882812 44.375 43.628906 43.628906 L 64.691406 22.5625 C 65.441406 21.816406 66.652344 21.816406 67.402344 22.5625 Z M 67.402344 22.5625 " fill-opacity="1" fill-rule="evenodd"/><path fill="#52c306" d="M 66.78125 14.488281 C 67.496094 14.785156 67.960938 15.484375 67.960938 16.257812 L 67.960938 22.003906 L 73.707031 22.003906 C 74.480469 22.003906 75.179688 22.46875 75.476562 23.183594 C 75.773438 23.902344 75.609375 24.722656 75.0625 25.273438 L 63.570312 36.761719 C 63.210938 37.121094 62.726562 37.324219 62.21875 37.324219 L 54.558594 37.324219 C 53.5 37.324219 52.644531 36.464844 52.644531 35.40625 L 52.644531 27.746094 C 52.644531 27.238281 52.84375 26.753906 53.203125 26.394531 L 64.691406 14.902344 C 65.242188 14.355469 66.066406 14.191406 66.78125 14.488281 Z M 56.472656 28.542969 L 56.472656 33.492188 L 61.425781 33.492188 L 69.085938 25.832031 L 66.046875 25.832031 C 64.988281 25.832031 64.132812 24.976562 64.132812 23.917969 L 64.132812 20.882812 Z M 56.472656 28.542969 " fill-opacity="1" fill-rule="evenodd"/></svg>