<svg xmlns="http://www.w3.org/2000/svg" xmlns:xlink="http://www.w3.org/1999/xlink" width="184" zoomAndPan="magnify" viewBox="0 0 138 47.25" height="63" preserveAspectRatio="xMidYMid meet" version="1.0"><defs><g/><clipPath id="81c91fd171"><path d="M 1.078125 9.804688 L 34.757812 9.804688 L 34.757812 33 L 1.078125 33 Z M 1.078125 9.804688 " clip-rule="nonzero"/></clipPath><clipPath id="1f314bf875"><path d="M 1.078125 21 L 34.757812 21 L 34.757812 43.484375 L 1.078125 43.484375 Z M 1.078125 21 " clip-rule="nonzero"/></clipPath></defs><g clip-path="url(#81c91fd171)"><path fill="#fdfef5" d="M 6.382812 21.46875 L 6.382812 15.527344 L 29.074219 15.527344 L 29.074219 18.496094 L 15.921875 32.285156 L 23.988281 32.285156 L 34.800781 21.253906 L 34.800781 9.804688 L 1.078125 9.804688 L 1.078125 26.769531 Z M 6.382812 21.46875 " fill-opacity="1" fill-rule="nonzero"/></g><g clip-path="url(#1f314bf875)"><path fill="#fdfef5" d="M 34.800781 25.710938 L 34.800781 43.523438 L 1.078125 43.523438 L 1.078125 31.4375 L 10.941406 21.148438 L 17.9375 21.148438 L 6.699219 33.453125 L 6.699219 37.90625 L 28.96875 37.90625 L 28.96875 31.113281 Z M 34.800781 25.710938 " fill-opacity="1" fill-rule="nonzero"/></g><g fill="#ffffff" fill-opacity="1"><g transform="translate(43.550019, 26.779316)"><g><path d="M 0.75 -10.390625 L 0.75 -13.15625 L 12.046875 -13.15625 L 12.046875 -10.90625 L 5.109375 -2.765625 L 12.15625 -2.765625 L 12.15625 0 L 0.5 0 L 0.5 -2.234375 L 7.453125 -10.390625 Z M 0.75 -10.390625 "/></g></g></g><g fill="#ffffff" fill-opacity="1"><g transform="translate(56.225439, 26.779316)"><g><path d="M 1.28125 0 L 1.28125 -13.15625 L 11.65625 -13.15625 L 11.65625 -10.421875 L 4.703125 -10.421875 L 4.703125 -7.953125 L 10.984375 -7.953125 L 10.984375 -5.234375 L 4.703125 -5.21875 L 4.703125 -2.734375 L 11.84375 -2.734375 L 11.84375 0 Z M 1.28125 0 "/></g></g></g><g fill="#ffffff" fill-opacity="1"><g transform="translate(68.882105, 26.779316)"><g><path d="M 10.28125 -5.234375 L 10.265625 -13.15625 L 13.453125 -13.15625 L 13.453125 0 L 10.453125 0 L 4.484375 -7.859375 L 4.484375 0 L 1.28125 0 L 1.28125 -13.15625 L 4.296875 -13.15625 Z M 10.28125 -5.234375 "/></g></g></g><g fill="#ffffff" fill-opacity="1"><g transform="translate(83.620093, 26.779316)"><g><path d="M 0.125 -10.328125 L 0.125 -13.15625 L 11.40625 -13.15625 L 11.40625 -10.328125 L 7.46875 -10.328125 L 7.46875 0 L 4.03125 0 L 4.03125 -10.328125 Z M 0.125 -10.328125 "/></g></g></g><g fill="#ffffff" fill-opacity="1"><g transform="translate(95.132969, 26.779316)"><g><path d="M 13.0625 0 L 9.171875 0 L 7.265625 -3.640625 L 4.703125 -3.640625 L 4.703125 0 L 1.28125 0 L 1.28125 -13.15625 L 7.1875 -13.15625 C 8.925781 -13.15625 10.273438 -12.75 11.234375 -11.9375 C 12.191406 -11.132812 12.671875 -10 12.671875 -8.53125 C 12.671875 -7.550781 12.46875 -6.695312 12.0625 -5.96875 C 11.664062 -5.25 11.085938 -4.691406 10.328125 -4.296875 Z M 4.703125 -10.421875 L 4.703125 -6.375 L 7.203125 -6.375 C 7.898438 -6.375 8.441406 -6.550781 8.828125 -6.90625 C 9.210938 -7.257812 9.40625 -7.765625 9.40625 -8.421875 C 9.40625 -9.066406 9.210938 -9.5625 8.828125 -9.90625 C 8.441406 -10.25 7.898438 -10.421875 7.203125 -10.421875 Z M 4.703125 -10.421875 "/></g></g></g><g fill="#ffffff" fill-opacity="1"><g transform="translate(108.708413, 26.779316)"><g><path d="M 7.546875 -13.359375 C 8.878906 -13.359375 10.085938 -13.0625 11.171875 -12.46875 C 12.253906 -11.882812 13.101562 -11.078125 13.71875 -10.046875 C 14.34375 -9.023438 14.65625 -7.878906 14.65625 -6.609375 C 14.65625 -5.316406 14.34375 -4.148438 13.71875 -3.109375 C 13.101562 -2.078125 12.253906 -1.257812 11.171875 -0.65625 C 10.085938 -0.0507812 8.878906 0.25 7.546875 0.25 C 6.203125 0.25 4.988281 -0.046875 3.90625 -0.640625 C 2.832031 -1.234375 1.984375 -2.050781 1.359375 -3.09375 C 0.742188 -4.144531 0.4375 -5.316406 0.4375 -6.609375 C 0.4375 -7.878906 0.742188 -9.023438 1.359375 -10.046875 C 1.984375 -11.078125 2.832031 -11.882812 3.90625 -12.46875 C 4.988281 -13.0625 6.203125 -13.359375 7.546875 -13.359375 Z M 7.578125 -10.453125 C 6.929688 -10.453125 6.328125 -10.28125 5.765625 -9.9375 C 5.210938 -9.601562 4.769531 -9.140625 4.4375 -8.546875 C 4.113281 -7.953125 3.953125 -7.300781 3.953125 -6.59375 C 3.953125 -5.863281 4.117188 -5.203125 4.453125 -4.609375 C 4.785156 -4.015625 5.226562 -3.546875 5.78125 -3.203125 C 6.332031 -2.859375 6.929688 -2.6875 7.578125 -2.6875 C 8.234375 -2.6875 8.832031 -2.859375 9.375 -3.203125 C 9.914062 -3.546875 10.34375 -4.015625 10.65625 -4.609375 C 10.96875 -5.203125 11.125 -5.863281 11.125 -6.59375 C 11.125 -7.300781 10.96875 -7.953125 10.65625 -8.546875 C 10.34375 -9.140625 9.914062 -9.601562 9.375 -9.9375 C 8.832031 -10.28125 8.234375 -10.453125 7.578125 -10.453125 Z M 7.578125 -10.453125 "/></g></g></g><g fill="#fdfef5" fill-opacity="1"><g transform="translate(43.550019, 40.908131)"><g><path d="M 3.328125 -6.171875 C 4.128906 -6.171875 4.757812 -5.976562 5.21875 -5.59375 C 5.675781 -5.207031 5.90625 -4.679688 5.90625 -4.015625 C 5.90625 -3.347656 5.675781 -2.820312 5.21875 -2.4375 C 4.757812 -2.0625 4.128906 -1.875 3.328125 -1.875 L 1.8125 -1.875 L 1.8125 0 L 0.921875 0 L 0.921875 -6.171875 Z M 3.296875 -2.640625 C 3.859375 -2.640625 4.285156 -2.753906 4.578125 -2.984375 C 4.867188 -3.222656 5.015625 -3.566406 5.015625 -4.015625 C 5.015625 -4.460938 4.867188 -4.804688 4.578125 -5.046875 C 4.285156 -5.285156 3.859375 -5.40625 3.296875 -5.40625 L 1.8125 -5.40625 L 1.8125 -2.640625 Z M 3.296875 -2.640625 "/></g></g></g><g fill="#fdfef5" fill-opacity="1"><g transform="translate(51.237058, 40.908131)"><g><path d="M 5.046875 0 L 3.71875 -1.890625 C 3.550781 -1.878906 3.421875 -1.875 3.328125 -1.875 L 1.8125 -1.875 L 1.8125 0 L 0.921875 0 L 0.921875 -6.171875 L 3.328125 -6.171875 C 4.128906 -6.171875 4.757812 -5.976562 5.21875 -5.59375 C 5.675781 -5.207031 5.90625 -4.679688 5.90625 -4.015625 C 5.90625 -3.535156 5.785156 -3.128906 5.546875 -2.796875 C 5.316406 -2.460938 4.984375 -2.222656 4.546875 -2.078125 L 6.015625 0 Z M 3.296875 -2.625 C 3.859375 -2.625 4.285156 -2.742188 4.578125 -2.984375 C 4.867188 -3.222656 5.015625 -3.566406 5.015625 -4.015625 C 5.015625 -4.460938 4.867188 -4.804688 4.578125 -5.046875 C 4.285156 -5.285156 3.859375 -5.40625 3.296875 -5.40625 L 1.8125 -5.40625 L 1.8125 -2.625 Z M 3.296875 -2.625 "/></g></g></g><g fill="#fdfef5" fill-opacity="1"><g transform="translate(58.968165, 40.908131)"><g><path d="M 3.703125 0.078125 C 3.085938 0.078125 2.53125 -0.0546875 2.03125 -0.328125 C 1.53125 -0.609375 1.132812 -0.988281 0.84375 -1.46875 C 0.5625 -1.945312 0.421875 -2.484375 0.421875 -3.078125 C 0.421875 -3.671875 0.5625 -4.207031 0.84375 -4.6875 C 1.132812 -5.175781 1.53125 -5.554688 2.03125 -5.828125 C 2.53125 -6.097656 3.085938 -6.234375 3.703125 -6.234375 C 4.328125 -6.234375 4.890625 -6.097656 5.390625 -5.828125 C 5.890625 -5.554688 6.28125 -5.179688 6.5625 -4.703125 C 6.84375 -4.222656 6.984375 -3.679688 6.984375 -3.078125 C 6.984375 -2.484375 6.84375 -1.945312 6.5625 -1.46875 C 6.28125 -0.988281 5.890625 -0.609375 5.390625 -0.328125 C 4.890625 -0.0546875 4.328125 0.078125 3.703125 0.078125 Z M 3.703125 -0.71875 C 4.160156 -0.71875 4.566406 -0.816406 4.921875 -1.015625 C 5.285156 -1.222656 5.570312 -1.507812 5.78125 -1.875 C 5.988281 -2.238281 6.09375 -2.640625 6.09375 -3.078125 C 6.09375 -3.523438 5.988281 -3.929688 5.78125 -4.296875 C 5.570312 -4.660156 5.285156 -4.941406 4.921875 -5.140625 C 4.566406 -5.347656 4.160156 -5.453125 3.703125 -5.453125 C 3.253906 -5.453125 2.847656 -5.347656 2.484375 -5.140625 C 2.117188 -4.941406 1.828125 -4.660156 1.609375 -4.296875 C 1.398438 -3.929688 1.296875 -3.523438 1.296875 -3.078125 C 1.296875 -2.640625 1.398438 -2.238281 1.609375 -1.875 C 1.828125 -1.507812 2.117188 -1.222656 2.484375 -1.015625 C 2.847656 -0.816406 3.253906 -0.71875 3.703125 -0.71875 Z M 3.703125 -0.71875 "/></g></g></g><g fill="#fdfef5" fill-opacity="1"><g transform="translate(67.695312, 40.908131)"><g><path d="M 1.71875 0.078125 C 1.34375 0.078125 1 0 0.6875 -0.15625 C 0.375 -0.3125 0.117188 -0.53125 -0.078125 -0.8125 L 0.4375 -1.421875 C 0.769531 -0.929688 1.195312 -0.6875 1.71875 -0.6875 C 2.0625 -0.6875 2.320312 -0.789062 2.5 -1 C 2.6875 -1.21875 2.78125 -1.53125 2.78125 -1.9375 L 2.78125 -5.40625 L 0.546875 -5.40625 L 0.546875 -6.171875 L 3.640625 -6.171875 L 3.640625 -1.984375 C 3.640625 -1.296875 3.476562 -0.78125 3.15625 -0.4375 C 2.832031 -0.09375 2.351562 0.078125 1.71875 0.078125 Z M 1.71875 0.078125 "/></g></g></g><g fill="#fdfef5" fill-opacity="1"><g transform="translate(73.540125, 40.908131)"><g><path d="M 5.40625 -0.765625 L 5.40625 0 L 0.921875 0 L 0.921875 -6.171875 L 5.28125 -6.171875 L 5.28125 -5.40625 L 1.8125 -5.40625 L 1.8125 -3.5 L 4.90625 -3.5 L 4.90625 -2.765625 L 1.8125 -2.765625 L 1.8125 -0.765625 Z M 5.40625 -0.765625 "/></g></g></g><g fill="#fdfef5" fill-opacity="1"><g transform="translate(80.768809, 40.908131)"><g><path d="M 3.6875 0.078125 C 3.070312 0.078125 2.515625 -0.0546875 2.015625 -0.328125 C 1.515625 -0.609375 1.125 -0.988281 0.84375 -1.46875 C 0.5625 -1.945312 0.421875 -2.484375 0.421875 -3.078125 C 0.421875 -3.679688 0.5625 -4.222656 0.84375 -4.703125 C 1.125 -5.179688 1.515625 -5.554688 2.015625 -5.828125 C 2.515625 -6.097656 3.070312 -6.234375 3.6875 -6.234375 C 4.175781 -6.234375 4.617188 -6.148438 5.015625 -5.984375 C 5.410156 -5.828125 5.75 -5.59375 6.03125 -5.28125 L 5.46875 -4.71875 C 5 -5.207031 4.421875 -5.453125 3.734375 -5.453125 C 3.273438 -5.453125 2.859375 -5.347656 2.484375 -5.140625 C 2.117188 -4.941406 1.828125 -4.660156 1.609375 -4.296875 C 1.398438 -3.929688 1.296875 -3.523438 1.296875 -3.078125 C 1.296875 -2.640625 1.398438 -2.238281 1.609375 -1.875 C 1.828125 -1.507812 2.117188 -1.222656 2.484375 -1.015625 C 2.859375 -0.816406 3.273438 -0.71875 3.734375 -0.71875 C 4.421875 -0.71875 5 -0.960938 5.46875 -1.453125 L 6.03125 -0.90625 C 5.75 -0.582031 5.40625 -0.335938 5 -0.171875 C 4.601562 -0.00390625 4.164062 0.078125 3.6875 0.078125 Z M 3.6875 0.078125 "/></g></g></g><g fill="#fdfef5" fill-opacity="1"><g transform="translate(88.464665, 40.908131)"><g><path d="M 2.15625 -5.40625 L 0.03125 -5.40625 L 0.03125 -6.171875 L 5.140625 -6.171875 L 5.140625 -5.40625 L 3.015625 -5.40625 L 3.015625 0 L 2.15625 0 Z M 2.15625 -5.40625 "/></g></g></g><g fill="#fdfef5" fill-opacity="1"><g transform="translate(94.961746, 40.908131)"><g><path d="M 2.71875 0.078125 C 2.257812 0.078125 1.8125 0.00390625 1.375 -0.140625 C 0.945312 -0.285156 0.609375 -0.472656 0.359375 -0.703125 L 0.6875 -1.390625 C 0.925781 -1.179688 1.226562 -1.007812 1.59375 -0.875 C 1.957031 -0.738281 2.332031 -0.671875 2.71875 -0.671875 C 3.226562 -0.671875 3.609375 -0.757812 3.859375 -0.9375 C 4.117188 -1.113281 4.25 -1.34375 4.25 -1.625 C 4.25 -1.84375 4.175781 -2.015625 4.03125 -2.140625 C 3.894531 -2.273438 3.722656 -2.378906 3.515625 -2.453125 C 3.316406 -2.523438 3.035156 -2.601562 2.671875 -2.6875 C 2.203125 -2.800781 1.828125 -2.910156 1.546875 -3.015625 C 1.265625 -3.128906 1.019531 -3.300781 0.8125 -3.53125 C 0.613281 -3.769531 0.515625 -4.085938 0.515625 -4.484375 C 0.515625 -4.804688 0.597656 -5.097656 0.765625 -5.359375 C 0.941406 -5.628906 1.207031 -5.84375 1.5625 -6 C 1.914062 -6.15625 2.351562 -6.234375 2.875 -6.234375 C 3.238281 -6.234375 3.597656 -6.1875 3.953125 -6.09375 C 4.304688 -6 4.609375 -5.863281 4.859375 -5.6875 L 4.5625 -4.984375 C 4.300781 -5.148438 4.023438 -5.273438 3.734375 -5.359375 C 3.441406 -5.441406 3.15625 -5.484375 2.875 -5.484375 C 2.375 -5.484375 2 -5.390625 1.75 -5.203125 C 1.5 -5.023438 1.375 -4.796875 1.375 -4.515625 C 1.375 -4.296875 1.441406 -4.117188 1.578125 -3.984375 C 1.722656 -3.859375 1.898438 -3.757812 2.109375 -3.6875 C 2.316406 -3.613281 2.601562 -3.535156 2.96875 -3.453125 C 3.425781 -3.335938 3.796875 -3.222656 4.078125 -3.109375 C 4.359375 -3.003906 4.597656 -2.835938 4.796875 -2.609375 C 5.003906 -2.378906 5.109375 -2.070312 5.109375 -1.6875 C 5.109375 -1.363281 5.019531 -1.066406 4.84375 -0.796875 C 4.664062 -0.523438 4.394531 -0.3125 4.03125 -0.15625 C 3.675781 0 3.238281 0.078125 2.71875 0.078125 Z M 2.71875 0.078125 "/></g></g></g></svg>