<svg xmlns="http://www.w3.org/2000/svg" xmlns:xlink="http://www.w3.org/1999/xlink" width="269" zoomAndPan="magnify" viewBox="0 0 201.75 56.999997" height="76" preserveAspectRatio="xMidYMid meet" version="1.0"><defs><g/><clipPath id="5104bb8c1c"><path d="M 0 10.953125 L 41.953125 10.953125 L 41.953125 40 L 0 40 Z M 0 10.953125 " clip-rule="nonzero"/></clipPath><clipPath id="25a1589c6c"><path d="M 0 25 L 41.953125 25 L 41.953125 52.910156 L 0 52.910156 Z M 0 25 " clip-rule="nonzero"/></clipPath></defs><g clip-path="url(#5104bb8c1c)"><path fill="#52c306" d="M 6.636719 25.550781 L 6.636719 18.117188 L 35.019531 18.117188 L 35.019531 21.828125 L 18.570312 39.078125 L 28.65625 39.078125 L 42.183594 25.277344 L 42.183594 10.953125 L 0 10.953125 L 0 32.175781 Z M 6.636719 25.550781 " fill-opacity="1" fill-rule="nonzero"/></g><g clip-path="url(#25a1589c6c)"><path fill="#52c306" d="M 42.183594 30.855469 L 42.183594 53.136719 L 0 53.136719 L 0 38.015625 L 12.335938 25.148438 L 21.089844 25.148438 L 7.03125 40.539062 L 7.03125 46.105469 L 34.890625 46.105469 L 34.890625 37.613281 Z M 42.183594 30.855469 " fill-opacity="1" fill-rule="nonzero"/></g><g fill="#ffffff" fill-opacity="1"><g transform="translate(53.126479, 33.532496)"><g><path d="M 0.9375 -13 L 0.9375 -16.453125 L 15.0625 -16.453125 L 15.0625 -13.640625 L 6.390625 -3.453125 L 15.203125 -3.453125 L 15.203125 0 L 0.640625 0 L 0.640625 -2.796875 L 9.3125 -13 Z M 0.9375 -13 "/></g></g></g><g fill="#ffffff" fill-opacity="1"><g transform="translate(68.981681, 33.532496)"><g><path d="M 1.59375 0 L 1.59375 -16.453125 L 14.578125 -16.453125 L 14.578125 -13.03125 L 5.890625 -13.03125 L 5.890625 -9.953125 L 13.734375 -9.953125 L 13.734375 -6.546875 L 5.890625 -6.53125 L 5.890625 -3.421875 L 14.8125 -3.421875 L 14.8125 0 Z M 1.59375 0 "/></g></g></g><g fill="#ffffff" fill-opacity="1"><g transform="translate(84.813424, 33.532496)"><g><path d="M 12.859375 -6.546875 L 12.84375 -16.453125 L 16.828125 -16.453125 L 16.828125 0 L 13.078125 0 L 5.609375 -9.828125 L 5.609375 0 L 1.59375 0 L 1.59375 -16.453125 L 5.375 -16.453125 Z M 12.859375 -6.546875 "/></g></g></g><g fill="#ffffff" fill-opacity="1"><g transform="translate(103.248612, 33.532496)"><g><path d="M 0.171875 -12.90625 L 0.171875 -16.453125 L 14.265625 -16.453125 L 14.265625 -12.90625 L 9.34375 -12.90625 L 9.34375 0 L 5.046875 0 L 5.046875 -12.90625 Z M 0.171875 -12.90625 "/></g></g></g><g fill="#ffffff" fill-opacity="1"><g transform="translate(117.649633, 33.532496)"><g><path d="M 16.328125 0 L 11.46875 0 L 9.078125 -4.546875 L 5.890625 -4.546875 L 5.890625 0 L 1.59375 0 L 1.59375 -16.453125 L 8.984375 -16.453125 C 11.160156 -16.453125 12.847656 -15.945312 14.046875 -14.9375 C 15.242188 -13.925781 15.84375 -12.503906 15.84375 -10.671875 C 15.84375 -9.441406 15.59375 -8.375 15.09375 -7.46875 C 14.59375 -6.570312 13.863281 -5.875 12.90625 -5.375 Z M 5.890625 -13.03125 L 5.890625 -7.984375 L 9.015625 -7.984375 C 9.890625 -7.984375 10.566406 -8.203125 11.046875 -8.640625 C 11.523438 -9.078125 11.765625 -9.707031 11.765625 -10.53125 C 11.765625 -11.332031 11.523438 -11.945312 11.046875 -12.375 C 10.566406 -12.8125 9.890625 -13.03125 9.015625 -13.03125 Z M 5.890625 -13.03125 "/></g></g></g><g fill="#ffffff" fill-opacity="1"><g transform="translate(134.63064, 33.532496)"><g><path d="M 9.4375 -16.703125 C 11.113281 -16.703125 12.625 -16.332031 13.96875 -15.59375 C 15.320312 -14.863281 16.382812 -13.859375 17.15625 -12.578125 C 17.9375 -11.296875 18.328125 -9.859375 18.328125 -8.265625 C 18.328125 -6.648438 17.9375 -5.191406 17.15625 -3.890625 C 16.382812 -2.597656 15.320312 -1.570312 13.96875 -0.8125 C 12.625 -0.0625 11.113281 0.3125 9.4375 0.3125 C 7.757812 0.3125 6.242188 -0.0546875 4.890625 -0.796875 C 3.535156 -1.546875 2.472656 -2.570312 1.703125 -3.875 C 0.929688 -5.1875 0.546875 -6.648438 0.546875 -8.265625 C 0.546875 -9.859375 0.929688 -11.296875 1.703125 -12.578125 C 2.472656 -13.859375 3.535156 -14.863281 4.890625 -15.59375 C 6.242188 -16.332031 7.757812 -16.703125 9.4375 -16.703125 Z M 9.484375 -13.078125 C 8.671875 -13.078125 7.914062 -12.863281 7.21875 -12.4375 C 6.519531 -12.019531 5.96875 -11.4375 5.5625 -10.6875 C 5.15625 -9.945312 4.953125 -9.128906 4.953125 -8.234375 C 4.953125 -7.328125 5.160156 -6.5 5.578125 -5.75 C 5.992188 -5.007812 6.546875 -4.425781 7.234375 -4 C 7.921875 -3.570312 8.671875 -3.359375 9.484375 -3.359375 C 10.296875 -3.359375 11.039062 -3.570312 11.71875 -4 C 12.40625 -4.425781 12.941406 -5.007812 13.328125 -5.75 C 13.722656 -6.5 13.921875 -7.328125 13.921875 -8.234375 C 13.921875 -9.128906 13.722656 -9.945312 13.328125 -10.6875 C 12.941406 -11.4375 12.40625 -12.019531 11.71875 -12.4375 C 11.039062 -12.863281 10.296875 -13.078125 9.484375 -13.078125 Z M 9.484375 -13.078125 "/></g></g></g><g fill="#52c306" fill-opacity="1"><g transform="translate(53.126479, 49.863116)"><g><path d="M 4.171875 -7.71875 C 5.171875 -7.71875 5.957031 -7.476562 6.53125 -7 C 7.101562 -6.519531 7.390625 -5.863281 7.390625 -5.03125 C 7.390625 -4.1875 7.101562 -3.523438 6.53125 -3.046875 C 5.957031 -2.578125 5.171875 -2.34375 4.171875 -2.34375 L 2.265625 -2.34375 L 2.265625 0 L 1.15625 0 L 1.15625 -7.71875 Z M 4.140625 -3.296875 C 4.835938 -3.296875 5.367188 -3.441406 5.734375 -3.734375 C 6.097656 -4.035156 6.28125 -4.46875 6.28125 -5.03125 C 6.28125 -5.59375 6.097656 -6.019531 5.734375 -6.3125 C 5.367188 -6.613281 4.835938 -6.765625 4.140625 -6.765625 L 2.265625 -6.765625 L 2.265625 -3.296875 Z M 4.140625 -3.296875 "/></g></g></g><g fill="#52c306" fill-opacity="1"><g transform="translate(62.741904, 49.863116)"><g><path d="M 6.328125 0 L 4.65625 -2.375 C 4.445312 -2.351562 4.285156 -2.34375 4.171875 -2.34375 L 2.265625 -2.34375 L 2.265625 0 L 1.15625 0 L 1.15625 -7.71875 L 4.171875 -7.71875 C 5.171875 -7.71875 5.957031 -7.476562 6.53125 -7 C 7.101562 -6.519531 7.390625 -5.863281 7.390625 -5.03125 C 7.390625 -4.4375 7.242188 -3.925781 6.953125 -3.5 C 6.660156 -3.082031 6.238281 -2.78125 5.6875 -2.59375 L 7.515625 0 Z M 4.140625 -3.28125 C 4.835938 -3.28125 5.367188 -3.429688 5.734375 -3.734375 C 6.097656 -4.035156 6.28125 -4.46875 6.28125 -5.03125 C 6.28125 -5.59375 6.097656 -6.019531 5.734375 -6.3125 C 5.367188 -6.613281 4.835938 -6.765625 4.140625 -6.765625 L 2.265625 -6.765625 L 2.265625 -3.28125 Z M 4.140625 -3.28125 "/></g></g></g><g fill="#52c306" fill-opacity="1"><g transform="translate(72.412452, 49.863116)"><g><path d="M 4.640625 0.09375 C 3.859375 0.09375 3.15625 -0.078125 2.53125 -0.421875 C 1.90625 -0.765625 1.414062 -1.238281 1.0625 -1.84375 C 0.707031 -2.445312 0.53125 -3.117188 0.53125 -3.859375 C 0.53125 -4.597656 0.707031 -5.269531 1.0625 -5.875 C 1.414062 -6.476562 1.90625 -6.953125 2.53125 -7.296875 C 3.15625 -7.640625 3.859375 -7.8125 4.640625 -7.8125 C 5.410156 -7.8125 6.109375 -7.640625 6.734375 -7.296875 C 7.359375 -6.953125 7.847656 -6.476562 8.203125 -5.875 C 8.554688 -5.28125 8.734375 -4.609375 8.734375 -3.859375 C 8.734375 -3.109375 8.554688 -2.429688 8.203125 -1.828125 C 7.847656 -1.234375 7.359375 -0.765625 6.734375 -0.421875 C 6.109375 -0.078125 5.410156 0.09375 4.640625 0.09375 Z M 4.640625 -0.890625 C 5.210938 -0.890625 5.722656 -1.019531 6.171875 -1.28125 C 6.617188 -1.539062 6.972656 -1.894531 7.234375 -2.34375 C 7.503906 -2.789062 7.640625 -3.296875 7.640625 -3.859375 C 7.640625 -4.421875 7.503906 -4.925781 7.234375 -5.375 C 6.972656 -5.832031 6.617188 -6.1875 6.171875 -6.4375 C 5.722656 -6.695312 5.210938 -6.828125 4.640625 -6.828125 C 4.078125 -6.828125 3.566406 -6.695312 3.109375 -6.4375 C 2.648438 -6.1875 2.285156 -5.832031 2.015625 -5.375 C 1.753906 -4.925781 1.625 -4.421875 1.625 -3.859375 C 1.625 -3.296875 1.753906 -2.789062 2.015625 -2.34375 C 2.285156 -1.894531 2.648438 -1.539062 3.109375 -1.28125 C 3.566406 -1.019531 4.078125 -0.890625 4.640625 -0.890625 Z M 4.640625 -0.890625 "/></g></g></g><g fill="#52c306" fill-opacity="1"><g transform="translate(83.328909, 49.863116)"><g><path d="M 2.15625 0.09375 C 1.6875 0.09375 1.253906 -0.00390625 0.859375 -0.203125 C 0.460938 -0.398438 0.144531 -0.675781 -0.09375 -1.03125 L 0.546875 -1.78125 C 0.972656 -1.164062 1.507812 -0.859375 2.15625 -0.859375 C 2.582031 -0.859375 2.90625 -0.988281 3.125 -1.25 C 3.351562 -1.519531 3.46875 -1.910156 3.46875 -2.421875 L 3.46875 -6.765625 L 0.6875 -6.765625 L 0.6875 -7.71875 L 4.5625 -7.71875 L 4.5625 -2.484375 C 4.5625 -1.628906 4.359375 -0.984375 3.953125 -0.546875 C 3.546875 -0.117188 2.945312 0.09375 2.15625 0.09375 Z M 2.15625 0.09375 "/></g></g></g><g fill="#52c306" fill-opacity="1"><g transform="translate(90.639964, 49.863116)"><g><path d="M 6.765625 -0.953125 L 6.765625 0 L 1.15625 0 L 1.15625 -7.71875 L 6.609375 -7.71875 L 6.609375 -6.765625 L 2.265625 -6.765625 L 2.265625 -4.390625 L 6.140625 -4.390625 L 6.140625 -3.453125 L 2.265625 -3.453125 L 2.265625 -0.953125 Z M 6.765625 -0.953125 "/></g></g></g><g fill="#52c306" fill-opacity="1"><g transform="translate(99.682049, 49.863116)"><g><path d="M 4.609375 0.09375 C 3.835938 0.09375 3.140625 -0.078125 2.515625 -0.421875 C 1.898438 -0.765625 1.414062 -1.234375 1.0625 -1.828125 C 0.707031 -2.429688 0.53125 -3.109375 0.53125 -3.859375 C 0.53125 -4.609375 0.707031 -5.28125 1.0625 -5.875 C 1.414062 -6.476562 1.90625 -6.953125 2.53125 -7.296875 C 3.15625 -7.640625 3.851562 -7.8125 4.625 -7.8125 C 5.226562 -7.8125 5.78125 -7.707031 6.28125 -7.5 C 6.78125 -7.300781 7.207031 -7.003906 7.5625 -6.609375 L 6.84375 -5.90625 C 6.257812 -6.519531 5.535156 -6.828125 4.671875 -6.828125 C 4.097656 -6.828125 3.578125 -6.695312 3.109375 -6.4375 C 2.648438 -6.1875 2.285156 -5.832031 2.015625 -5.375 C 1.753906 -4.925781 1.625 -4.421875 1.625 -3.859375 C 1.625 -3.296875 1.753906 -2.789062 2.015625 -2.34375 C 2.285156 -1.894531 2.648438 -1.539062 3.109375 -1.28125 C 3.578125 -1.019531 4.097656 -0.890625 4.671875 -0.890625 C 5.523438 -0.890625 6.25 -1.195312 6.84375 -1.8125 L 7.5625 -1.125 C 7.207031 -0.726562 6.773438 -0.425781 6.265625 -0.21875 C 5.765625 -0.0078125 5.210938 0.09375 4.609375 0.09375 Z M 4.609375 0.09375 "/></g></g></g><g fill="#52c306" fill-opacity="1"><g transform="translate(109.308504, 49.863116)"><g><path d="M 2.6875 -6.765625 L 0.046875 -6.765625 L 0.046875 -7.71875 L 6.4375 -7.71875 L 6.4375 -6.765625 L 3.78125 -6.765625 L 3.78125 0 L 2.6875 0 Z M 2.6875 -6.765625 "/></g></g></g><g fill="#52c306" fill-opacity="1"><g transform="translate(117.435455, 49.863116)"><g><path d="M 3.40625 0.09375 C 2.820312 0.09375 2.257812 0.00390625 1.71875 -0.171875 C 1.1875 -0.359375 0.765625 -0.59375 0.453125 -0.875 L 0.859375 -1.75 C 1.148438 -1.476562 1.523438 -1.257812 1.984375 -1.09375 C 2.453125 -0.925781 2.925781 -0.84375 3.40625 -0.84375 C 4.050781 -0.84375 4.53125 -0.953125 4.84375 -1.171875 C 5.15625 -1.390625 5.3125 -1.679688 5.3125 -2.046875 C 5.3125 -2.304688 5.222656 -2.519531 5.046875 -2.6875 C 4.878906 -2.851562 4.664062 -2.976562 4.40625 -3.0625 C 4.15625 -3.15625 3.800781 -3.253906 3.34375 -3.359375 C 2.757812 -3.503906 2.289062 -3.644531 1.9375 -3.78125 C 1.582031 -3.925781 1.273438 -4.140625 1.015625 -4.421875 C 0.765625 -4.710938 0.640625 -5.109375 0.640625 -5.609375 C 0.640625 -6.015625 0.75 -6.382812 0.96875 -6.71875 C 1.1875 -7.050781 1.515625 -7.316406 1.953125 -7.515625 C 2.390625 -7.710938 2.9375 -7.8125 3.59375 -7.8125 C 4.050781 -7.8125 4.5 -7.75 4.9375 -7.625 C 5.382812 -7.507812 5.765625 -7.34375 6.078125 -7.125 L 5.71875 -6.25 C 5.394531 -6.445312 5.046875 -6.597656 4.671875 -6.703125 C 4.304688 -6.816406 3.945312 -6.875 3.59375 -6.875 C 2.96875 -6.875 2.5 -6.757812 2.1875 -6.53125 C 1.875 -6.300781 1.71875 -6.003906 1.71875 -5.640625 C 1.71875 -5.378906 1.804688 -5.164062 1.984375 -5 C 2.160156 -4.832031 2.378906 -4.703125 2.640625 -4.609375 C 2.898438 -4.523438 3.253906 -4.429688 3.703125 -4.328125 C 4.285156 -4.179688 4.753906 -4.039062 5.109375 -3.90625 C 5.460938 -3.769531 5.765625 -3.554688 6.015625 -3.265625 C 6.265625 -2.972656 6.390625 -2.585938 6.390625 -2.109375 C 6.390625 -1.703125 6.28125 -1.332031 6.0625 -1 C 5.84375 -0.664062 5.507812 -0.398438 5.0625 -0.203125 C 4.613281 -0.00390625 4.0625 0.09375 3.40625 0.09375 Z M 3.40625 0.09375 "/></g></g></g></svg>