<svg xmlns="http://www.w3.org/2000/svg" xmlns:xlink="http://www.w3.org/1999/xlink" width="331" zoomAndPan="magnify" viewBox="0 0 248.25 84.749997" height="113" preserveAspectRatio="xMidYMid meet" version="1.0"><defs><g/><clipPath id="7bcb7ae7f4"><path d="M 0 15.320312 L 66.550781 15.320312 L 66.550781 60 L 0 60 Z M 0 15.320312 " clip-rule="nonzero"/></clipPath><clipPath id="d325e47666"><path d="M 0 37 L 66.550781 37 L 66.550781 81.867188 L 0 81.867188 Z M 0 37 " clip-rule="nonzero"/></clipPath></defs><g clip-path="url(#7bcb7ae7f4)"><path fill="#52c306" d="M 10.527344 38.46875 L 10.527344 26.679688 L 55.550781 26.679688 L 55.550781 32.566406 L 29.457031 59.925781 L 45.453125 59.925781 L 66.910156 38.039062 L 66.910156 15.320312 L 0 15.320312 L 0 48.984375 Z M 10.527344 38.46875 " fill-opacity="1" fill-rule="nonzero"/></g><g clip-path="url(#d325e47666)"><path fill="#52c306" d="M 66.910156 46.886719 L 66.910156 82.230469 L 0 82.230469 L 0 58.246094 L 19.566406 37.832031 L 33.457031 37.832031 L 11.152344 62.246094 L 11.152344 71.078125 L 55.34375 71.078125 L 55.34375 57.605469 Z M 66.910156 46.886719 " fill-opacity="1" fill-rule="nonzero"/></g><g fill="#000000" fill-opacity="1"><g transform="translate(84.269432, 48.391205)"><g><path d="M 1.328125 -18.484375 L 1.328125 -23.390625 L 21.421875 -23.390625 L 21.421875 -19.390625 L 9.078125 -4.90625 L 21.625 -4.90625 L 21.625 0 L 0.90625 0 L 0.90625 -3.96875 L 13.25 -18.484375 Z M 1.328125 -18.484375 "/></g></g></g><g fill="#000000" fill-opacity="1"><g transform="translate(106.832755, 48.391205)"><g><path d="M 2.265625 0 L 2.265625 -23.390625 L 20.71875 -23.390625 L 20.71875 -18.515625 L 8.375 -18.515625 L 8.375 -14.15625 L 19.53125 -14.15625 L 19.53125 -9.3125 L 8.375 -9.28125 L 8.375 -4.875 L 21.0625 -4.875 L 21.0625 0 Z M 2.265625 0 "/></g></g></g><g fill="#000000" fill-opacity="1"><g transform="translate(129.362698, 48.391205)"><g><path d="M 18.296875 -9.3125 L 18.25 -23.390625 L 23.9375 -23.390625 L 23.9375 0 L 18.59375 0 L 7.984375 -13.984375 L 7.984375 0 L 2.265625 0 L 2.265625 -23.390625 L 7.640625 -23.390625 Z M 18.296875 -9.3125 "/></g></g></g><g fill="#000000" fill-opacity="1"><g transform="translate(155.597559, 48.391205)"><g><path d="M 0.234375 -18.359375 L 0.234375 -23.390625 L 20.296875 -23.390625 L 20.296875 -18.359375 L 13.28125 -18.359375 L 13.28125 0 L 7.171875 0 L 7.171875 -18.359375 Z M 0.234375 -18.359375 "/></g></g></g><g fill="#000000" fill-opacity="1"><g transform="translate(176.09147, 48.391205)"><g><path d="M 23.234375 0 L 16.328125 0 L 12.921875 -6.46875 L 8.375 -6.46875 L 8.375 0 L 2.265625 0 L 2.265625 -23.390625 L 12.78125 -23.390625 C 15.875 -23.390625 18.269531 -22.671875 19.96875 -21.234375 C 21.675781 -19.804688 22.53125 -17.789062 22.53125 -15.1875 C 22.53125 -13.425781 22.171875 -11.90625 21.453125 -10.625 C 20.742188 -9.34375 19.710938 -8.347656 18.359375 -7.640625 Z M 8.375 -18.515625 L 8.375 -11.34375 L 12.8125 -11.34375 C 14.0625 -11.34375 15.023438 -11.65625 15.703125 -12.28125 C 16.378906 -12.90625 16.71875 -13.804688 16.71875 -14.984375 C 16.71875 -16.117188 16.378906 -16.988281 15.703125 -17.59375 C 15.023438 -18.207031 14.0625 -18.515625 12.8125 -18.515625 Z M 8.375 -18.515625 "/></g></g></g><g fill="#000000" fill-opacity="1"><g transform="translate(200.256918, 48.391205)"><g><path d="M 13.421875 -23.765625 C 15.796875 -23.765625 17.945312 -23.238281 19.875 -22.1875 C 21.800781 -21.144531 23.3125 -19.710938 24.40625 -17.890625 C 25.507812 -16.066406 26.0625 -14.019531 26.0625 -11.75 C 26.0625 -9.457031 25.507812 -7.382812 24.40625 -5.53125 C 23.3125 -3.6875 21.800781 -2.226562 19.875 -1.15625 C 17.945312 -0.09375 15.796875 0.4375 13.421875 0.4375 C 11.035156 0.4375 8.878906 -0.0859375 6.953125 -1.140625 C 5.035156 -2.203125 3.523438 -3.660156 2.421875 -5.515625 C 1.316406 -7.378906 0.765625 -9.457031 0.765625 -11.75 C 0.765625 -14.019531 1.316406 -16.066406 2.421875 -17.890625 C 3.523438 -19.710938 5.035156 -21.144531 6.953125 -22.1875 C 8.878906 -23.238281 11.035156 -23.765625 13.421875 -23.765625 Z M 13.484375 -18.59375 C 12.328125 -18.59375 11.253906 -18.289062 10.265625 -17.6875 C 9.273438 -17.082031 8.488281 -16.25 7.90625 -15.1875 C 7.332031 -14.132812 7.046875 -12.976562 7.046875 -11.71875 C 7.046875 -10.425781 7.335938 -9.25 7.921875 -8.1875 C 8.515625 -7.132812 9.300781 -6.300781 10.28125 -5.6875 C 11.257812 -5.070312 12.328125 -4.765625 13.484375 -4.765625 C 14.640625 -4.765625 15.703125 -5.070312 16.671875 -5.6875 C 17.640625 -6.300781 18.398438 -7.132812 18.953125 -8.1875 C 19.515625 -9.25 19.796875 -10.425781 19.796875 -11.71875 C 19.796875 -12.976562 19.515625 -14.132812 18.953125 -15.1875 C 18.398438 -16.25 17.640625 -17.082031 16.671875 -17.6875 C 15.703125 -18.289062 14.640625 -18.59375 13.484375 -18.59375 Z M 13.484375 -18.59375 "/></g></g></g><g fill="#52c306" fill-opacity="1"><g transform="translate(84.269432, 76.032631)"><g><path d="M 5.890625 -10.90625 C 7.296875 -10.90625 8.40625 -10.566406 9.21875 -9.890625 C 10.03125 -9.210938 10.4375 -8.285156 10.4375 -7.109375 C 10.4375 -5.921875 10.03125 -4.988281 9.21875 -4.3125 C 8.40625 -3.632812 7.296875 -3.296875 5.890625 -3.296875 L 3.1875 -3.296875 L 3.1875 0 L 1.640625 0 L 1.640625 -10.90625 Z M 5.84375 -4.65625 C 6.832031 -4.65625 7.582031 -4.863281 8.09375 -5.28125 C 8.613281 -5.707031 8.875 -6.316406 8.875 -7.109375 C 8.875 -7.890625 8.613281 -8.488281 8.09375 -8.90625 C 7.582031 -9.332031 6.832031 -9.546875 5.84375 -9.546875 L 3.1875 -9.546875 L 3.1875 -4.65625 Z M 5.84375 -4.65625 "/></g></g></g><g fill="#52c306" fill-opacity="1"><g transform="translate(97.846135, 76.032631)"><g><path d="M 8.921875 0 L 6.578125 -3.34375 C 6.285156 -3.320312 6.054688 -3.3125 5.890625 -3.3125 L 3.1875 -3.3125 L 3.1875 0 L 1.640625 0 L 1.640625 -10.90625 L 5.890625 -10.90625 C 7.296875 -10.90625 8.40625 -10.566406 9.21875 -9.890625 C 10.03125 -9.210938 10.4375 -8.285156 10.4375 -7.109375 C 10.4375 -6.265625 10.226562 -5.546875 9.8125 -4.953125 C 9.394531 -4.359375 8.800781 -3.925781 8.03125 -3.65625 L 10.625 0 Z M 5.84375 -4.640625 C 6.832031 -4.640625 7.582031 -4.851562 8.09375 -5.28125 C 8.613281 -5.707031 8.875 -6.316406 8.875 -7.109375 C 8.875 -7.890625 8.613281 -8.488281 8.09375 -8.90625 C 7.582031 -9.332031 6.832031 -9.546875 5.84375 -9.546875 L 3.1875 -9.546875 L 3.1875 -4.640625 Z M 5.84375 -4.640625 "/></g></g></g><g fill="#52c306" fill-opacity="1"><g transform="translate(111.500666, 76.032631)"><g><path d="M 6.5625 0.125 C 5.457031 0.125 4.460938 -0.113281 3.578125 -0.59375 C 2.703125 -1.082031 2.007812 -1.75 1.5 -2.59375 C 1 -3.445312 0.75 -4.398438 0.75 -5.453125 C 0.75 -6.503906 1 -7.453125 1.5 -8.296875 C 2.007812 -9.148438 2.703125 -9.816406 3.578125 -10.296875 C 4.460938 -10.785156 5.457031 -11.03125 6.5625 -11.03125 C 7.644531 -11.03125 8.628906 -10.785156 9.515625 -10.296875 C 10.398438 -9.816406 11.09375 -9.15625 11.59375 -8.3125 C 12.09375 -7.46875 12.34375 -6.515625 12.34375 -5.453125 C 12.34375 -4.390625 12.09375 -3.4375 11.59375 -2.59375 C 11.09375 -1.75 10.398438 -1.082031 9.515625 -0.59375 C 8.628906 -0.113281 7.644531 0.125 6.5625 0.125 Z M 6.5625 -1.265625 C 7.363281 -1.265625 8.082031 -1.445312 8.71875 -1.8125 C 9.351562 -2.175781 9.851562 -2.675781 10.21875 -3.3125 C 10.59375 -3.945312 10.78125 -4.660156 10.78125 -5.453125 C 10.78125 -6.242188 10.59375 -6.957031 10.21875 -7.59375 C 9.851562 -8.226562 9.351562 -8.726562 8.71875 -9.09375 C 8.082031 -9.457031 7.363281 -9.640625 6.5625 -9.640625 C 5.757812 -9.640625 5.03125 -9.457031 4.375 -9.09375 C 3.726562 -8.726562 3.222656 -8.226562 2.859375 -7.59375 C 2.492188 -6.957031 2.3125 -6.242188 2.3125 -5.453125 C 2.3125 -4.660156 2.492188 -3.945312 2.859375 -3.3125 C 3.222656 -2.675781 3.726562 -2.175781 4.375 -1.8125 C 5.03125 -1.445312 5.757812 -1.265625 6.5625 -1.265625 Z M 6.5625 -1.265625 "/></g></g></g><g fill="#52c306" fill-opacity="1"><g transform="translate(126.914299, 76.032631)"><g><path d="M 3.03125 0.125 C 2.382812 0.125 1.78125 -0.0078125 1.21875 -0.28125 C 0.65625 -0.5625 0.203125 -0.953125 -0.140625 -1.453125 L 0.765625 -2.515625 C 1.367188 -1.648438 2.125 -1.21875 3.03125 -1.21875 C 3.644531 -1.21875 4.109375 -1.40625 4.421875 -1.78125 C 4.742188 -2.15625 4.90625 -2.703125 4.90625 -3.421875 L 4.90625 -9.546875 L 0.96875 -9.546875 L 0.96875 -10.90625 L 6.453125 -10.90625 L 6.453125 -3.5 C 6.453125 -2.300781 6.160156 -1.394531 5.578125 -0.78125 C 5.003906 -0.175781 4.15625 0.125 3.03125 0.125 Z M 3.03125 0.125 "/></g></g></g><g fill="#52c306" fill-opacity="1"><g transform="translate(137.237451, 76.032631)"><g><path d="M 9.546875 -1.359375 L 9.546875 0 L 1.640625 0 L 1.640625 -10.90625 L 9.328125 -10.90625 L 9.328125 -9.546875 L 3.1875 -9.546875 L 3.1875 -6.203125 L 8.65625 -6.203125 L 8.65625 -4.875 L 3.1875 -4.875 L 3.1875 -1.359375 Z M 9.546875 -1.359375 "/></g></g></g><g fill="#52c306" fill-opacity="1"><g transform="translate(150.004649, 76.032631)"><g><path d="M 6.515625 0.125 C 5.421875 0.125 4.4375 -0.113281 3.5625 -0.59375 C 2.6875 -1.082031 2 -1.75 1.5 -2.59375 C 1 -3.4375 0.75 -4.390625 0.75 -5.453125 C 0.75 -6.515625 1 -7.46875 1.5 -8.3125 C 2 -9.15625 2.6875 -9.816406 3.5625 -10.296875 C 4.445312 -10.785156 5.4375 -11.03125 6.53125 -11.03125 C 7.375 -11.03125 8.148438 -10.882812 8.859375 -10.59375 C 9.566406 -10.3125 10.171875 -9.890625 10.671875 -9.328125 L 9.65625 -8.34375 C 8.832031 -9.207031 7.8125 -9.640625 6.59375 -9.640625 C 5.78125 -9.640625 5.046875 -9.457031 4.390625 -9.09375 C 3.734375 -8.726562 3.222656 -8.226562 2.859375 -7.59375 C 2.492188 -6.957031 2.3125 -6.242188 2.3125 -5.453125 C 2.3125 -4.660156 2.492188 -3.945312 2.859375 -3.3125 C 3.222656 -2.675781 3.734375 -2.175781 4.390625 -1.8125 C 5.046875 -1.445312 5.78125 -1.265625 6.59375 -1.265625 C 7.800781 -1.265625 8.820312 -1.703125 9.65625 -2.578125 L 10.671875 -1.59375 C 10.171875 -1.03125 9.5625 -0.601562 8.84375 -0.3125 C 8.132812 -0.0195312 7.359375 0.125 6.515625 0.125 Z M 6.515625 0.125 "/></g></g></g><g fill="#52c306" fill-opacity="1"><g transform="translate(163.596914, 76.032631)"><g><path d="M 3.796875 -9.546875 L 0.0625 -9.546875 L 0.0625 -10.90625 L 9.078125 -10.90625 L 9.078125 -9.546875 L 5.34375 -9.546875 L 5.34375 0 L 3.796875 0 Z M 3.796875 -9.546875 "/></g></g></g><g fill="#52c306" fill-opacity="1"><g transform="translate(175.07204, 76.032631)"><g><path d="M 4.8125 0.125 C 3.988281 0.125 3.195312 0 2.4375 -0.25 C 1.675781 -0.507812 1.078125 -0.84375 0.640625 -1.25 L 1.21875 -2.46875 C 1.632812 -2.09375 2.164062 -1.785156 2.8125 -1.546875 C 3.457031 -1.316406 4.125 -1.203125 4.8125 -1.203125 C 5.71875 -1.203125 6.394531 -1.351562 6.84375 -1.65625 C 7.289062 -1.96875 7.515625 -2.375 7.515625 -2.875 C 7.515625 -3.25 7.390625 -3.550781 7.140625 -3.78125 C 6.898438 -4.019531 6.597656 -4.203125 6.234375 -4.328125 C 5.878906 -4.453125 5.375 -4.59375 4.71875 -4.75 C 3.894531 -4.945312 3.234375 -5.144531 2.734375 -5.34375 C 2.234375 -5.539062 1.800781 -5.84375 1.4375 -6.25 C 1.082031 -6.664062 0.90625 -7.21875 0.90625 -7.90625 C 0.90625 -8.488281 1.054688 -9.015625 1.359375 -9.484375 C 1.671875 -9.953125 2.132812 -10.328125 2.75 -10.609375 C 3.375 -10.890625 4.148438 -11.03125 5.078125 -11.03125 C 5.722656 -11.03125 6.351562 -10.945312 6.96875 -10.78125 C 7.59375 -10.613281 8.128906 -10.375 8.578125 -10.0625 L 8.0625 -8.8125 C 7.613281 -9.101562 7.128906 -9.320312 6.609375 -9.46875 C 6.085938 -9.625 5.578125 -9.703125 5.078125 -9.703125 C 4.191406 -9.703125 3.53125 -9.539062 3.09375 -9.21875 C 2.65625 -8.894531 2.4375 -8.476562 2.4375 -7.96875 C 2.4375 -7.601562 2.554688 -7.300781 2.796875 -7.0625 C 3.046875 -6.832031 3.351562 -6.648438 3.71875 -6.515625 C 4.09375 -6.390625 4.597656 -6.253906 5.234375 -6.109375 C 6.054688 -5.910156 6.710938 -5.710938 7.203125 -5.515625 C 7.703125 -5.316406 8.128906 -5.015625 8.484375 -4.609375 C 8.847656 -4.203125 9.03125 -3.65625 9.03125 -2.96875 C 9.03125 -2.40625 8.875 -1.882812 8.5625 -1.40625 C 8.25 -0.9375 7.773438 -0.5625 7.140625 -0.28125 C 6.515625 -0.0078125 5.738281 0.125 4.8125 0.125 Z M 4.8125 0.125 "/></g></g></g></svg>