<svg xmlns="http://www.w3.org/2000/svg" xmlns:xlink="http://www.w3.org/1999/xlink" width="252" zoomAndPan="magnify" viewBox="0 0 189 64.499998" height="86" preserveAspectRatio="xMidYMid meet" version="1.0"><defs><g/><clipPath id="00507a9940"><path d="M 0.726562 11.609375 L 51.175781 11.609375 L 51.175781 46 L 0.726562 46 Z M 0.726562 11.609375 " clip-rule="nonzero"/></clipPath><clipPath id="e194da7661"><path d="M 0.726562 28 L 51.175781 28 L 51.175781 62.058594 L 0.726562 62.058594 Z M 0.726562 28 " clip-rule="nonzero"/></clipPath></defs><g clip-path="url(#00507a9940)"><path fill="#52c306" d="M 8.707031 29.160156 L 8.707031 20.222656 L 42.839844 20.222656 L 42.839844 24.6875 L 23.054688 45.425781 L 35.183594 45.425781 L 51.449219 28.835938 L 51.449219 11.609375 L 0.726562 11.609375 L 0.726562 37.128906 Z M 8.707031 29.160156 " fill-opacity="1" fill-rule="nonzero"/></g><g clip-path="url(#e194da7661)"><path fill="#52c306" d="M 51.449219 35.539062 L 51.449219 62.335938 L 0.726562 62.335938 L 0.726562 44.152344 L 15.5625 28.675781 L 26.089844 28.675781 L 9.179688 47.183594 L 9.179688 53.878906 L 42.679688 53.878906 L 42.679688 43.667969 Z M 51.449219 35.539062 " fill-opacity="1" fill-rule="nonzero"/></g><g fill="#000000" fill-opacity="1"><g transform="translate(64.60954, 36.681914)"><g><path d="M 1.015625 -14.015625 L 1.015625 -17.75 L 16.25 -17.75 L 16.25 -14.703125 L 6.890625 -3.71875 L 16.40625 -3.71875 L 16.40625 0 L 0.6875 0 L 0.6875 -3.015625 L 10.046875 -14.015625 Z M 1.015625 -14.015625 "/></g></g></g><g fill="#000000" fill-opacity="1"><g transform="translate(81.714247, 36.681914)"><g><path d="M 1.71875 0 L 1.71875 -17.75 L 15.71875 -17.75 L 15.71875 -14.046875 L 6.359375 -14.046875 L 6.359375 -10.734375 L 14.8125 -10.734375 L 14.8125 -7.0625 L 6.359375 -7.03125 L 6.359375 -3.703125 L 15.96875 -3.703125 L 15.96875 0 Z M 1.71875 0 "/></g></g></g><g fill="#000000" fill-opacity="1"><g transform="translate(98.793649, 36.681914)"><g><path d="M 13.875 -7.0625 L 13.84375 -17.75 L 18.15625 -17.75 L 18.15625 0 L 14.09375 0 L 6.046875 -10.609375 L 6.046875 0 L 1.71875 0 L 1.71875 -17.75 L 5.796875 -17.75 Z M 13.875 -7.0625 "/></g></g></g><g fill="#000000" fill-opacity="1"><g transform="translate(118.681659, 36.681914)"><g><path d="M 0.171875 -13.921875 L 0.171875 -17.75 L 15.390625 -17.75 L 15.390625 -13.921875 L 10.078125 -13.921875 L 10.078125 0 L 5.4375 0 L 5.4375 -13.921875 Z M 0.171875 -13.921875 "/></g></g></g><g fill="#000000" fill-opacity="1"><g transform="translate(134.217594, 36.681914)"><g><path d="M 17.625 0 L 12.375 0 L 9.796875 -4.90625 L 6.359375 -4.90625 L 6.359375 0 L 1.71875 0 L 1.71875 -17.75 L 9.6875 -17.75 C 12.039062 -17.75 13.859375 -17.203125 15.140625 -16.109375 C 16.429688 -15.023438 17.078125 -13.492188 17.078125 -11.515625 C 17.078125 -10.179688 16.804688 -9.03125 16.265625 -8.0625 C 15.734375 -7.09375 14.953125 -6.335938 13.921875 -5.796875 Z M 6.359375 -14.046875 L 6.359375 -8.609375 L 9.71875 -8.609375 C 10.664062 -8.609375 11.394531 -8.84375 11.90625 -9.3125 C 12.425781 -9.789062 12.6875 -10.472656 12.6875 -11.359375 C 12.6875 -12.222656 12.425781 -12.882812 11.90625 -13.34375 C 11.394531 -13.8125 10.664062 -14.046875 9.71875 -14.046875 Z M 6.359375 -14.046875 "/></g></g></g><g fill="#000000" fill-opacity="1"><g transform="translate(152.536832, 36.681914)"><g><path d="M 10.171875 -18.015625 C 11.984375 -18.015625 13.617188 -17.617188 15.078125 -16.828125 C 16.535156 -16.035156 17.679688 -14.945312 18.515625 -13.5625 C 19.347656 -12.175781 19.765625 -10.625 19.765625 -8.90625 C 19.765625 -7.164062 19.347656 -5.59375 18.515625 -4.1875 C 17.679688 -2.789062 16.535156 -1.6875 15.078125 -0.875 C 13.617188 -0.0703125 11.984375 0.328125 10.171875 0.328125 C 8.367188 0.328125 6.738281 -0.0703125 5.28125 -0.875 C 3.820312 -1.675781 2.671875 -2.78125 1.828125 -4.1875 C 0.992188 -5.59375 0.578125 -7.164062 0.578125 -8.90625 C 0.578125 -10.625 0.992188 -12.175781 1.828125 -13.5625 C 2.671875 -14.945312 3.820312 -16.035156 5.28125 -16.828125 C 6.738281 -17.617188 8.367188 -18.015625 10.171875 -18.015625 Z M 10.21875 -14.09375 C 9.34375 -14.09375 8.53125 -13.863281 7.78125 -13.40625 C 7.03125 -12.957031 6.4375 -12.332031 6 -11.53125 C 5.5625 -10.726562 5.34375 -9.847656 5.34375 -8.890625 C 5.34375 -7.910156 5.566406 -7.019531 6.015625 -6.21875 C 6.460938 -5.414062 7.054688 -4.78125 7.796875 -4.3125 C 8.535156 -3.851562 9.34375 -3.625 10.21875 -3.625 C 11.101562 -3.625 11.910156 -3.851562 12.640625 -4.3125 C 13.378906 -4.78125 13.957031 -5.414062 14.375 -6.21875 C 14.800781 -7.019531 15.015625 -7.910156 15.015625 -8.890625 C 15.015625 -9.847656 14.800781 -10.726562 14.375 -11.53125 C 13.957031 -12.332031 13.378906 -12.957031 12.640625 -13.40625 C 11.910156 -13.863281 11.101562 -14.09375 10.21875 -14.09375 Z M 10.21875 -14.09375 "/></g></g></g><g fill="#52c306" fill-opacity="1"><g transform="translate(64.60954, 57.636207)"><g><path d="M 4.46875 -8.265625 C 5.539062 -8.265625 6.382812 -8.007812 7 -7.5 C 7.613281 -6.988281 7.921875 -6.285156 7.921875 -5.390625 C 7.921875 -4.492188 7.613281 -3.785156 7 -3.265625 C 6.382812 -2.753906 5.539062 -2.5 4.46875 -2.5 L 2.421875 -2.5 L 2.421875 0 L 1.234375 0 L 1.234375 -8.265625 Z M 4.421875 -3.53125 C 5.171875 -3.53125 5.742188 -3.6875 6.140625 -4 C 6.535156 -4.320312 6.734375 -4.785156 6.734375 -5.390625 C 6.734375 -5.984375 6.535156 -6.4375 6.140625 -6.75 C 5.742188 -7.070312 5.171875 -7.234375 4.421875 -7.234375 L 2.421875 -7.234375 L 2.421875 -3.53125 Z M 4.421875 -3.53125 "/></g></g></g><g fill="#52c306" fill-opacity="1"><g transform="translate(74.901709, 57.636207)"><g><path d="M 6.765625 0 L 4.984375 -2.546875 C 4.765625 -2.523438 4.59375 -2.515625 4.46875 -2.515625 L 2.421875 -2.515625 L 2.421875 0 L 1.234375 0 L 1.234375 -8.265625 L 4.46875 -8.265625 C 5.539062 -8.265625 6.382812 -8.007812 7 -7.5 C 7.613281 -6.988281 7.921875 -6.285156 7.921875 -5.390625 C 7.921875 -4.742188 7.757812 -4.195312 7.4375 -3.75 C 7.125 -3.300781 6.675781 -2.976562 6.09375 -2.78125 L 8.0625 0 Z M 4.421875 -3.515625 C 5.171875 -3.515625 5.742188 -3.675781 6.140625 -4 C 6.535156 -4.320312 6.734375 -4.785156 6.734375 -5.390625 C 6.734375 -5.984375 6.535156 -6.4375 6.140625 -6.75 C 5.742188 -7.070312 5.171875 -7.234375 4.421875 -7.234375 L 2.421875 -7.234375 L 2.421875 -3.515625 Z M 4.421875 -3.515625 "/></g></g></g><g fill="#52c306" fill-opacity="1"><g transform="translate(85.252876, 57.636207)"><g><path d="M 4.96875 0.09375 C 4.132812 0.09375 3.382812 -0.0859375 2.71875 -0.453125 C 2.050781 -0.816406 1.523438 -1.320312 1.140625 -1.96875 C 0.753906 -2.613281 0.5625 -3.335938 0.5625 -4.140625 C 0.5625 -4.929688 0.753906 -5.648438 1.140625 -6.296875 C 1.523438 -6.941406 2.050781 -7.445312 2.71875 -7.8125 C 3.382812 -8.175781 4.132812 -8.359375 4.96875 -8.359375 C 5.800781 -8.359375 6.550781 -8.175781 7.21875 -7.8125 C 7.882812 -7.445312 8.40625 -6.941406 8.78125 -6.296875 C 9.164062 -5.660156 9.359375 -4.941406 9.359375 -4.140625 C 9.359375 -3.328125 9.164062 -2.597656 8.78125 -1.953125 C 8.40625 -1.316406 7.882812 -0.816406 7.21875 -0.453125 C 6.550781 -0.0859375 5.800781 0.09375 4.96875 0.09375 Z M 4.96875 -0.953125 C 5.570312 -0.953125 6.113281 -1.085938 6.59375 -1.359375 C 7.082031 -1.640625 7.46875 -2.019531 7.75 -2.5 C 8.03125 -2.988281 8.171875 -3.535156 8.171875 -4.140625 C 8.171875 -4.734375 8.03125 -5.269531 7.75 -5.75 C 7.46875 -6.238281 7.082031 -6.617188 6.59375 -6.890625 C 6.113281 -7.171875 5.570312 -7.3125 4.96875 -7.3125 C 4.363281 -7.3125 3.816406 -7.171875 3.328125 -6.890625 C 2.835938 -6.617188 2.453125 -6.238281 2.171875 -5.75 C 1.890625 -5.269531 1.75 -4.734375 1.75 -4.140625 C 1.75 -3.535156 1.890625 -2.988281 2.171875 -2.5 C 2.453125 -2.019531 2.835938 -1.640625 3.328125 -1.359375 C 3.816406 -1.085938 4.363281 -0.953125 4.96875 -0.953125 Z M 4.96875 -0.953125 "/></g></g></g><g fill="#52c306" fill-opacity="1"><g transform="translate(96.937577, 57.636207)"><g><path d="M 2.296875 0.09375 C 1.804688 0.09375 1.347656 -0.0078125 0.921875 -0.21875 C 0.492188 -0.425781 0.148438 -0.71875 -0.109375 -1.09375 L 0.578125 -1.90625 C 1.035156 -1.25 1.609375 -0.921875 2.296875 -0.921875 C 2.765625 -0.921875 3.117188 -1.0625 3.359375 -1.34375 C 3.597656 -1.625 3.71875 -2.039062 3.71875 -2.59375 L 3.71875 -7.234375 L 0.734375 -7.234375 L 0.734375 -8.265625 L 4.890625 -8.265625 L 4.890625 -2.65625 C 4.890625 -1.738281 4.671875 -1.050781 4.234375 -0.59375 C 3.796875 -0.132812 3.148438 0.09375 2.296875 0.09375 Z M 2.296875 0.09375 "/></g></g></g><g fill="#52c306" fill-opacity="1"><g transform="translate(104.763307, 57.636207)"><g><path d="M 7.234375 -1.03125 L 7.234375 0 L 1.234375 0 L 1.234375 -8.265625 L 7.078125 -8.265625 L 7.078125 -7.234375 L 2.421875 -7.234375 L 2.421875 -4.703125 L 6.5625 -4.703125 L 6.5625 -3.703125 L 2.421875 -3.703125 L 2.421875 -1.03125 Z M 7.234375 -1.03125 "/></g></g></g><g fill="#52c306" fill-opacity="1"><g transform="translate(114.441809, 57.636207)"><g><path d="M 4.9375 0.09375 C 4.113281 0.09375 3.367188 -0.0859375 2.703125 -0.453125 C 2.035156 -0.816406 1.507812 -1.316406 1.125 -1.953125 C 0.75 -2.597656 0.5625 -3.328125 0.5625 -4.140625 C 0.5625 -4.941406 0.75 -5.660156 1.125 -6.296875 C 1.507812 -6.941406 2.035156 -7.445312 2.703125 -7.8125 C 3.367188 -8.175781 4.117188 -8.359375 4.953125 -8.359375 C 5.597656 -8.359375 6.1875 -8.25 6.71875 -8.03125 C 7.257812 -7.820312 7.71875 -7.503906 8.09375 -7.078125 L 7.328125 -6.328125 C 6.703125 -6.984375 5.925781 -7.3125 5 -7.3125 C 4.382812 -7.3125 3.828125 -7.171875 3.328125 -6.890625 C 2.835938 -6.617188 2.453125 -6.238281 2.171875 -5.75 C 1.890625 -5.269531 1.75 -4.734375 1.75 -4.140625 C 1.75 -3.535156 1.890625 -2.988281 2.171875 -2.5 C 2.453125 -2.019531 2.835938 -1.640625 3.328125 -1.359375 C 3.828125 -1.085938 4.382812 -0.953125 5 -0.953125 C 5.914062 -0.953125 6.691406 -1.285156 7.328125 -1.953125 L 8.09375 -1.203125 C 7.71875 -0.773438 7.257812 -0.453125 6.71875 -0.234375 C 6.175781 -0.015625 5.582031 0.09375 4.9375 0.09375 Z M 4.9375 0.09375 "/></g></g></g><g fill="#52c306" fill-opacity="1"><g transform="translate(124.745775, 57.636207)"><g><path d="M 2.875 -7.234375 L 0.046875 -7.234375 L 0.046875 -8.265625 L 6.890625 -8.265625 L 6.890625 -7.234375 L 4.046875 -7.234375 L 4.046875 0 L 2.875 0 Z M 2.875 -7.234375 "/></g></g></g><g fill="#52c306" fill-opacity="1"><g transform="translate(133.444789, 57.636207)"><g><path d="M 3.65625 0.09375 C 3.03125 0.09375 2.425781 0 1.84375 -0.1875 C 1.269531 -0.382812 0.816406 -0.632812 0.484375 -0.9375 L 0.921875 -1.859375 C 1.234375 -1.578125 1.632812 -1.347656 2.125 -1.171875 C 2.625 -0.992188 3.132812 -0.90625 3.65625 -0.90625 C 4.332031 -0.90625 4.835938 -1.019531 5.171875 -1.25 C 5.515625 -1.488281 5.6875 -1.800781 5.6875 -2.1875 C 5.6875 -2.46875 5.59375 -2.695312 5.40625 -2.875 C 5.226562 -3.050781 5.003906 -3.1875 4.734375 -3.28125 C 4.460938 -3.375 4.078125 -3.484375 3.578125 -3.609375 C 2.953125 -3.753906 2.445312 -3.898438 2.0625 -4.046875 C 1.6875 -4.203125 1.363281 -4.429688 1.09375 -4.734375 C 0.820312 -5.046875 0.6875 -5.46875 0.6875 -6 C 0.6875 -6.4375 0.800781 -6.832031 1.03125 -7.1875 C 1.257812 -7.539062 1.609375 -7.820312 2.078125 -8.03125 C 2.554688 -8.25 3.144531 -8.359375 3.84375 -8.359375 C 4.332031 -8.359375 4.8125 -8.296875 5.28125 -8.171875 C 5.757812 -8.046875 6.171875 -7.863281 6.515625 -7.625 L 6.125 -6.6875 C 5.769531 -6.90625 5.394531 -7.070312 5 -7.1875 C 4.613281 -7.300781 4.226562 -7.359375 3.84375 -7.359375 C 3.175781 -7.359375 2.675781 -7.234375 2.34375 -6.984375 C 2.007812 -6.742188 1.84375 -6.429688 1.84375 -6.046875 C 1.84375 -5.765625 1.9375 -5.535156 2.125 -5.359375 C 2.3125 -5.179688 2.546875 -5.039062 2.828125 -4.9375 C 3.109375 -4.84375 3.488281 -4.738281 3.96875 -4.625 C 4.59375 -4.476562 5.09375 -4.328125 5.46875 -4.171875 C 5.84375 -4.023438 6.164062 -3.796875 6.4375 -3.484375 C 6.707031 -3.179688 6.84375 -2.769531 6.84375 -2.25 C 6.84375 -1.820312 6.722656 -1.425781 6.484375 -1.0625 C 6.253906 -0.707031 5.898438 -0.425781 5.421875 -0.21875 C 4.941406 -0.0078125 4.351562 0.09375 3.65625 0.09375 Z M 3.65625 0.09375 "/></g></g></g></svg>